<svg xmlns="http://www.w3.org/2000/svg" viewBox="0 -0.5 26 27" shape-rendering="crispEdges">
<metadata>Made with Pixels to Svg https://codepen.io/shshaw/pen/XbxvNj</metadata>
<path stroke="#000000" d="M4 0h18M3 1h1M22 1h1M2 2h1M23 2h1M2 3h1M23 3h1M2 4h1M23 4h1M1 5h1M24 5h1M1 6h1M24 6h1M1 7h1M24 7h1M1 8h1M24 8h1M0 9h1M25 9h1M0 10h1M25 10h1M0 11h1M25 11h1M0 12h1M25 12h1M0 13h1M25 13h1M0 14h1M25 14h1M0 15h1M25 15h1M0 16h1M25 16h1M0 17h1M25 17h1M0 18h1M25 18h1M1 19h1M24 19h1M1 20h1M24 20h1M1 21h1M24 21h1M1 22h1M24 22h1M2 23h1M23 23h1M2 24h1M23 24h1M2 25h1M23 25h1M3 26h1M22 26h1" />
<path stroke="#bd7f4e" d="M4 1h18M6 2h14M3 3h3M20 3h3M3 4h20M2 5h22M2 6h22M5 7h16M2 8h3M21 8h3M1 9h24M1 10h24M1 11h24M1 12h24M1 13h24M1 14h24M1 15h24M1 16h24M5 17h16M1 18h4M21 18h4M2 19h22M2 20h22M2 21h22M2 22h22M6 23h14M3 24h3M20 24h3M3 25h20M4 26h18" />
<path stroke="#9c5841" d="M3 2h3M20 2h3M6 3h14M2 7h3M21 7h3M5 8h16M1 17h4M21 17h4M5 18h16M3 23h3M20 23h3M6 24h14" />
</svg>