<svg xmlns="http://www.w3.org/2000/svg" viewBox="0 -0.5 19 32" shape-rendering="crispEdges">
<metadata>Made with Pixels to Svg https://codepen.io/shshaw/pen/XbxvNj</metadata>
<path stroke="#000000" d="M8 0h3M8 1h1M10 1h1M8 2h1M10 2h1M3 3h2M8 3h1M10 3h1M1 4h2M5 4h1M8 4h1M10 4h2M1 5h1M6 5h1M8 5h1M11 5h1M1 6h1M7 6h2M11 6h1M1 7h3M11 7h1M4 8h4M10 8h1M7 9h1M10 9h1M15 9h2M7 10h1M10 10h1M13 10h2M17 10h2M7 11h1M10 11h1M12 11h1M18 11h1M7 12h1M10 12h2M18 12h1M2 13h2M7 13h1M15 13h3M0 14h2M4 14h1M7 14h2M11 14h4M0 15h1M5 15h1M8 15h1M11 15h1M0 16h1M5 16h1M8 16h1M11 16h1M1 17h1M6 17h1M8 17h1M11 17h1M2 18h1M7 18h2M11 18h1M3 19h1M10 19h2M4 20h4M10 20h1M7 21h1M10 21h1M2 22h14M2 23h1M15 23h1M2 24h1M15 24h1M3 25h1M14 25h1M3 26h1M14 26h1M3 27h1M14 27h1M3 28h1M14 28h1M4 29h1M13 29h1M4 30h1M13 30h1M5 31h1M12 31h1" />
<path stroke="#157c47" d="M9 1h1M9 2h1M9 3h1M9 4h1M9 5h2M9 6h2M8 7h3M8 8h2M8 9h2M8 10h2M8 11h2M8 12h2M8 13h3M9 14h2M9 15h2M9 16h2M9 17h2M9 18h2M8 19h2M8 20h2M8 21h2" />
<path stroke="#8dd95b" d="M3 4h2M2 5h2M2 6h1M15 10h2M16 11h2M17 12h1M2 14h2M3 15h2M4 16h1M4 17h2M5 18h2" />
<path stroke="#2eb534" d="M4 5h2M3 6h4M4 7h4M13 11h3M12 12h5M11 13h4M1 15h2M1 16h3M2 17h2M3 18h2M4 19h4" />
<path stroke="#a13030" d="M3 23h6M3 24h8M4 25h9M4 26h9M4 27h9M4 28h9M5 29h7M5 30h7M6 31h5" />
<path stroke="#7f1f20" d="M9 23h6M11 24h4M13 25h1M13 26h1M13 27h1M13 28h1M12 29h1M12 30h1M11 31h1" />
</svg>