<svg xmlns="http://www.w3.org/2000/svg" viewBox="0 -0.5 25 20" shape-rendering="crispEdges">
<metadata>Made with Pixels to Svg https://codepen.io/shshaw/pen/XbxvNj</metadata>
<path stroke="#000000" d="M8 0h10M6 1h2M18 1h2M6 2h1M20 2h2M3 3h3M22 3h1M2 4h1M22 4h1M1 5h1M23 5h1M1 6h1M23 6h1M1 7h1M23 7h1M0 8h1M23 8h1M0 9h1M24 9h1M0 10h1M24 10h1M0 11h1M24 11h1M0 12h1M24 12h1M0 13h1M24 13h1M0 14h1M24 14h1M0 15h1M24 15h1M1 16h1M23 16h1M1 17h1M23 17h1M1 18h1M23 18h1M2 19h1M22 19h1" />
<path stroke="#2eb534" d="M8 1h7M7 2h2M6 3h2M3 4h4M3 5h3M3 6h1M1 8h1M1 9h2M1 10h1M1 11h1M1 12h1M5 15h1M17 15h4M3 16h3M12 16h11M2 17h5M11 17h12M2 18h4M10 18h6M21 18h2M3 19h3M20 19h2" />
<path stroke="#157c47" d="M15 1h3M9 2h11M8 3h14M7 4h5M14 4h8M6 5h6M14 5h9M4 6h19M3 7h2M7 7h14M3 8h2M7 8h14M3 9h12M17 9h7M2 10h13M17 10h7M2 11h22M2 12h22M1 13h23M1 14h2M5 14h8M15 14h9M1 15h2M6 15h7M15 15h2M21 15h3M2 16h1M6 16h6M7 17h4M6 18h2M13 19h1" />
<path stroke="#ab3434" d="M12 4h2M12 5h2M5 7h2M21 7h2M5 8h2M21 8h2M15 9h2M15 10h2M3 14h2M13 14h2M3 15h2M13 15h2" />
<path stroke="#8dd95b" d="M2 5h1M2 6h1M2 7h1M2 8h1M16 18h5" />
<path stroke="#08582f" d="M8 18h2M6 19h7M14 19h6" />
</svg>