<svg xmlns="http://www.w3.org/2000/svg" viewBox="0 -0.5 30 39" shape-rendering="crispEdges">
<metadata>Made with Pixels to Svg https://codepen.io/shshaw/pen/XbxvNj</metadata>
<path stroke="#000000" d="M16 2h4M9 3h7M20 3h1M8 4h1M20 4h1M7 5h1M21 5h1M7 6h1M22 6h1M6 7h1M22 7h1M6 8h1M21 8h1M6 9h1M21 9h1M6 10h1M21 10h1M6 11h1M14 11h1M18 11h1M21 11h1M6 12h1M14 12h1M18 12h1M21 12h1M6 13h1M21 13h1M6 14h1M21 14h1M7 15h1M20 15h1M7 16h1M20 16h1M8 17h1M19 17h1M9 18h1M18 18h1M9 19h1M18 19h1M8 20h1M19 20h1M7 21h1M20 21h1M7 22h1M20 22h1M6 23h1M21 23h1M6 24h1M10 24h1M19 24h1M21 24h1M6 25h1M10 25h1M19 25h1M21 25h1M6 26h1M10 26h1M19 26h1M21 26h1M6 27h1M10 27h1M19 27h1M21 27h1M6 28h1M10 28h1M19 28h1M21 28h1M6 29h1M10 29h1M19 29h1M21 29h1M6 30h1M10 30h1M19 30h1M21 30h1M7 31h3M19 31h2M9 32h1M19 32h1M9 33h1M19 33h1M9 34h1M19 34h1M9 35h1M14 35h2M19 35h1M9 36h1M13 36h1M15 36h1M19 36h1M9 37h1M13 37h1M15 37h1M19 37h1M9 38h1M13 38h1M15 38h1M19 38h1" />
<path stroke="#7a4231" d="M16 3h4M9 4h11M8 5h13M8 6h14M7 7h15M7 8h14M7 9h6M7 10h5M7 11h5M9 12h2M9 13h2" />
<path stroke="#f9b681" d="M13 9h8M12 10h9M12 11h2M15 11h3M19 11h2M7 12h2M11 12h3M15 12h3M19 12h2M7 13h2M11 13h10M7 14h14M8 15h12M8 16h12M9 17h10M10 18h8M13 19h4M7 26h3M20 26h1M7 27h3M20 27h1M7 28h3M20 28h1M7 29h3M20 29h1M7 30h3M20 30h1" />
<path stroke="#957f74" d="M10 19h3M17 19h1M9 20h10M8 21h12M8 22h12M7 23h14M7 24h3M11 24h8M20 24h1M7 25h3M11 25h8M20 25h1M11 26h8M11 27h8M11 28h8M11 29h8M11 30h8" />
<path stroke="#49689e" d="M10 31h9" />
<path stroke="#343956" d="M10 32h9M10 33h9M10 34h9M10 35h4M16 35h3M10 36h3M16 36h3M10 37h3M16 37h3M10 38h3M16 38h3" />
</svg>