<svg xmlns="http://www.w3.org/2000/svg" viewBox="0 -0.5 30 39" shape-rendering="crispEdges">
<metadata>Made with Pixels to Svg https://codepen.io/shshaw/pen/XbxvNj</metadata>
<path stroke="#000000" d="M20 2h3M10 3h10M22 3h1M9 4h1M22 4h1M8 5h1M22 5h1M8 6h1M22 6h1M7 7h1M22 7h1M7 8h1M22 8h1M7 9h1M22 9h1M7 10h1M22 10h1M7 11h1M22 11h1M7 12h1M22 12h1M7 13h1M22 13h1M7 14h1M22 14h1M8 15h1M21 15h1M8 16h1M21 16h1M9 17h1M20 17h1M10 18h1M19 18h1M10 19h1M19 19h1M9 20h1M19 20h1M9 21h1M19 21h1M8 22h1M19 22h1M8 23h1M19 23h1M7 24h1M19 24h1M7 25h1M19 25h1M7 26h1M11 26h1M19 26h1M7 27h1M11 27h1M19 27h1M7 28h1M11 28h1M19 28h1M7 29h1M11 29h1M19 29h1M7 30h1M11 30h1M19 30h1M8 31h3M19 31h1M10 32h1M19 32h1M10 33h1M19 33h1M10 34h1M19 34h1M10 35h1M14 35h2M19 35h1M9 36h1M13 36h1M15 36h1M19 36h1M9 37h1M13 37h1M15 37h1M19 37h1M9 38h1M13 38h1M15 38h1M19 38h1" />
<path stroke="#7a4231" d="M20 3h2M10 4h12M9 5h13M9 6h13M8 7h14M8 8h14M8 9h8M8 10h7M11 11h4M13 12h2M13 13h2" />
<path stroke="#f9b681" d="M16 9h6M15 10h7M8 11h3M15 11h3M19 11h3M8 12h5M15 12h3M19 12h3M8 13h5M15 13h7M8 14h14M9 15h12M9 16h12M10 17h10M11 18h8M17 19h2M8 26h3M8 27h3M8 28h3M8 29h3M8 30h3" />
<path stroke="#17181c" d="M18 11h1M18 12h1" />
<path stroke="#957f74" d="M11 19h6M10 20h9M10 21h9M9 22h10M9 23h10M8 24h11M8 25h11M12 26h7M12 27h7M12 28h7M12 29h7M12 30h7" />
<path stroke="#49689e" d="M11 31h8" />
<path stroke="#343956" d="M11 32h8M11 33h8M11 34h8M11 35h3M16 35h3M10 36h3M16 36h3M10 37h3M16 37h3M10 38h3M16 38h3" />
</svg>