<svg xmlns="http://www.w3.org/2000/svg" viewBox="0 -0.5 43 10" shape-rendering="crispEdges">
<metadata>Made with Pixels to Svg https://codepen.io/shshaw/pen/XbxvNj</metadata>
<path stroke="#157c47" d="M7 0h1M9 0h1M20 0h1M22 0h1M33 0h1M35 0h1M8 1h1M21 1h1M34 1h1M8 2h1M21 2h1M34 2h1" />
<path stroke="#000000" d="M0 3h43M0 4h1M42 4h1M0 5h1M42 5h1M0 6h1M42 6h1M1 7h1M41 7h1M1 8h1M41 8h1M2 9h1M40 9h1" />
<path stroke="#a13030" d="M1 4h40M1 5h40M1 6h40M2 7h38M2 8h38M3 9h36" />
<path stroke="#7f1f20" d="M41 4h1M41 5h1M41 6h1M40 7h1M40 8h1M39 9h1" />
</svg>