<svg xmlns="http://www.w3.org/2000/svg" viewBox="0 -0.5 43 12" shape-rendering="crispEdges">
<metadata>Made with Pixels to Svg https://codepen.io/shshaw/pen/XbxvNj</metadata>
<path stroke="#157c47" d="M8 0h1M21 0h1M34 0h1M8 1h1M21 1h1M34 1h1" />
<path stroke="#000000" d="M7 1h1M9 1h1M20 1h1M22 1h1M33 1h1M35 1h1M6 2h1M10 2h1M19 2h1M23 2h1M32 2h1M36 2h1M6 3h1M10 3h1M19 3h1M23 3h1M32 3h1M36 3h1M6 4h1M10 4h1M19 4h1M23 4h1M32 4h1M36 4h1M0 5h43M0 6h1M42 6h1M0 7h1M42 7h1M0 8h1M42 8h1M1 9h1M41 9h1M1 10h1M41 10h1M2 11h1M40 11h1" />
<path stroke="#ed9121" d="M7 2h3M20 2h3M33 2h3M7 3h3M20 3h3M33 3h3M7 4h3M20 4h3M33 4h3" />
<path stroke="#a13030" d="M1 6h40M1 7h40M1 8h40M2 9h38M2 10h38M3 11h36" />
<path stroke="#7f1f20" d="M41 6h1M41 7h1M41 8h1M40 9h1M40 10h1M39 11h1" />
</svg>