<svg xmlns="http://www.w3.org/2000/svg" viewBox="0 -0.5 22 36" shape-rendering="crispEdges">
<metadata>Made with Pixels to Svg https://codepen.io/shshaw/pen/XbxvNj</metadata>
<path stroke="#000000" d="M3 0h16M2 1h1M19 1h1M2 2h1M19 2h1M2 3h1M19 3h1M2 4h1M19 4h1M1 5h20M1 6h1M20 6h1M1 7h1M20 7h1M1 8h1M20 8h1M1 9h1M13 9h5M20 9h1M1 10h1M13 10h5M20 10h1M1 11h1M20 11h1M1 12h1M20 12h1M1 13h1M20 13h1M1 14h1M20 14h1M1 15h1M20 15h1M1 16h1M20 16h1M1 17h1M20 17h1M1 18h1M20 18h1M1 19h1M20 19h1M0 20h22M0 21h1M21 21h1M0 22h1M21 22h1M0 23h1M21 23h1M0 24h1M21 24h1M0 25h1M21 25h1M0 26h1M21 26h1M0 27h1M21 27h1M0 28h1M21 28h1M0 29h1M21 29h1M0 30h1M21 30h1M0 31h1M21 31h1M0 32h1M21 32h1M0 33h1M21 33h1M0 34h1M21 34h1M0 35h1M21 35h1" />
<path stroke="#b41a19" d="M3 1h16M3 2h16M3 3h16M3 4h16" />
<path stroke="#cbcbd5" d="M2 6h18M2 7h18M2 8h2M11 8h9M2 9h2M11 9h2M18 9h2M2 10h2M11 10h2M18 10h2M2 11h2M11 11h9M2 12h2M11 12h2M18 12h2M2 13h2M11 13h2M18 13h2M2 14h2M11 14h9M2 15h2M11 15h9M2 16h18M2 17h18M2 18h18M2 19h18M1 21h20M1 22h1M10 22h11M1 23h1M3 23h6M10 23h11M1 24h1M3 24h6M10 24h11M1 25h1M3 25h6M10 25h11M1 26h1M3 26h6M10 26h11M1 27h1M3 27h4M8 27h1M10 27h11M1 28h1M3 28h4M8 28h1M10 28h11M1 29h1M3 29h4M8 29h1M10 29h11M1 30h1M3 30h6M10 30h11M1 31h1M3 31h6M10 31h11M1 32h1M3 32h6M10 32h11M1 33h1M3 33h6M10 33h11M1 34h1M10 34h11M1 35h20" />
<path stroke="#5186b5" d="M4 8h6M4 9h6M4 10h6M4 11h7M4 12h7M4 13h7M4 14h7" />
<path stroke="#c1dff2" d="M10 8h1M10 9h1M10 10h1" />
<path stroke="#52b950" d="M13 12h5M13 13h5" />
<path stroke="#75747a" d="M4 15h7M2 22h8M2 23h1M9 23h1M2 24h1M9 24h1M2 25h1M9 25h1M2 26h1M9 26h1M2 27h1M7 27h1M9 27h1M2 28h1M7 28h1M9 28h1M2 29h1M7 29h1M9 29h1M2 30h1M9 30h1M2 31h1M9 31h1M2 32h1M9 32h1M2 33h1M9 33h1M2 34h8" />
</svg>