<svg xmlns="http://www.w3.org/2000/svg" viewBox="0 -0.5 79 39" shape-rendering="crispEdges">
<metadata>Made with Pixels to Svg https://codepen.io/shshaw/pen/XbxvNj</metadata>
<path stroke="#000000" d="M11 1h4M35 1h3M55 1h3M75 1h3M4 2h7M15 2h1M25 2h10M37 2h1M45 2h10M57 2h1M65 2h10M77 2h1M3 3h1M15 3h1M24 3h1M37 3h1M44 3h1M57 3h1M64 3h1M77 3h1M2 4h1M16 4h1M23 4h1M37 4h1M43 4h1M57 4h1M63 4h1M77 4h1M2 5h1M17 5h1M23 5h1M37 5h1M43 5h1M57 5h1M63 5h1M77 5h1M1 6h1M17 6h1M22 6h1M37 6h1M42 6h1M57 6h1M62 6h1M77 6h1M1 7h1M16 7h1M22 7h1M37 7h1M42 7h1M57 7h1M62 7h1M77 7h1M1 8h1M16 8h1M22 8h1M37 8h1M42 8h1M57 8h1M62 8h1M77 8h1M1 9h1M16 9h1M22 9h1M37 9h1M42 9h1M57 9h1M62 9h1M77 9h1M1 10h1M9 10h1M13 10h1M16 10h1M22 10h1M37 10h1M42 10h1M57 10h1M62 10h1M77 10h1M1 11h1M9 11h1M13 11h1M16 11h1M22 11h1M37 11h1M42 11h1M57 11h1M62 11h1M77 11h1M1 12h1M16 12h1M22 12h1M37 12h1M42 12h1M57 12h1M62 12h1M77 12h1M1 13h1M16 13h1M22 13h1M37 13h1M42 13h1M57 13h1M62 13h1M77 13h1M2 14h1M15 14h1M23 14h1M36 14h1M43 14h1M56 14h1M63 14h1M76 14h1M2 15h1M15 15h1M23 15h1M36 15h1M43 15h1M56 15h1M63 15h1M76 15h1M3 16h1M14 16h1M24 16h1M35 16h1M44 16h1M55 16h1M64 16h1M75 16h1M4 17h1M13 17h1M25 17h1M34 17h1M45 17h1M54 17h1M65 17h1M74 17h1M4 18h1M13 18h1M25 18h1M34 18h1M45 18h1M54 18h1M65 18h1M74 18h1M3 19h1M14 19h1M24 19h1M34 19h1M44 19h1M54 19h1M64 19h1M74 19h1M2 20h1M15 20h1M24 20h1M34 20h1M44 20h1M54 20h1M64 20h1M74 20h1M2 21h1M15 21h1M23 21h1M34 21h1M43 21h1M54 21h1M63 21h1M74 21h1M1 22h1M16 22h1M23 22h1M34 22h1M43 22h1M54 22h1M63 22h1M74 22h1M1 23h1M5 23h1M14 23h1M16 23h1M22 23h1M34 23h1M42 23h1M54 23h1M62 23h1M74 23h1M1 24h1M5 24h1M14 24h1M16 24h1M22 24h1M34 24h1M42 24h1M54 24h1M62 24h1M74 24h1M1 25h1M5 25h1M14 25h1M16 25h1M22 25h1M26 25h1M34 25h1M42 25h1M46 25h1M54 25h1M62 25h1M66 25h1M74 25h1M1 26h1M5 26h1M14 26h1M16 26h1M22 26h1M26 26h1M34 26h1M42 26h1M46 26h1M54 26h1M62 26h1M66 26h1M74 26h1M1 27h1M5 27h1M14 27h1M16 27h1M22 27h1M26 27h1M34 27h1M42 27h1M46 27h1M54 27h1M62 27h1M66 27h1M74 27h1M1 28h1M5 28h1M14 28h1M16 28h1M22 28h1M26 28h1M34 28h1M42 28h1M46 28h1M54 28h1M62 28h1M66 28h1M74 28h1M1 29h1M5 29h1M14 29h1M16 29h1M22 29h1M26 29h1M34 29h1M42 29h1M46 29h1M54 29h1M62 29h1M66 29h1M74 29h1M2 30h3M14 30h2M23 30h3M34 30h1M43 30h3M54 30h1M63 30h3M74 30h1M4 31h1M14 31h1M24 31h1M34 31h1M45 31h1M54 31h1M65 31h1M74 31h1M4 32h1M14 32h1M24 32h1M34 32h1M45 32h1M54 32h1M65 32h1M74 32h1M4 33h1M14 33h1M24 33h1M34 33h1M45 33h1M54 33h1M65 33h1M74 33h1M4 34h1M9 34h2M14 34h1M24 34h1M29 34h2M34 34h1M45 34h1M50 34h2M54 34h1M65 34h1M69 34h2M74 34h1M4 35h1M8 35h1M10 35h1M14 35h1M24 35h1M28 35h1M30 35h1M34 35h1M45 35h1M49 35h1M51 35h1M55 35h1M64 35h1M68 35h1M70 35h1M74 35h1M4 36h1M8 36h1M10 36h1M14 36h1M24 36h1M28 36h1M30 36h1M34 36h1M45 36h1M49 36h1M51 36h1M55 36h1M64 36h1M68 36h1M70 36h1M74 36h1M4 37h1M8 37h1M10 37h1M14 37h1M24 37h1M28 37h1M30 37h1M34 37h1M45 37h1M49 37h1M51 37h1M55 37h1M64 37h1M68 37h1M70 37h1M74 37h1" />
<path stroke="#7a4231" d="M11 2h4M35 2h2M55 2h2M75 2h2M4 3h11M25 3h12M45 3h12M65 3h12M3 4h13M24 4h13M44 4h13M64 4h13M3 5h14M24 5h13M44 5h13M64 5h13M2 6h15M23 6h14M43 6h14M63 6h14M2 7h14M23 7h14M43 7h14M63 7h14M2 8h6M23 8h8M43 8h8M63 8h8M2 9h5M23 9h7M43 9h7M63 9h7M2 10h5M26 10h4M46 10h4M66 10h4M4 11h2M28 11h2M48 11h2M68 11h2M4 12h2M28 12h2M48 12h2M68 12h2" />
<path stroke="#f9b681" d="M8 8h8M31 8h6M51 8h6M71 8h6M7 9h9M30 9h7M50 9h7M70 9h7M7 10h2M10 10h3M14 10h2M23 10h3M30 10h3M34 10h3M43 10h3M50 10h3M54 10h3M63 10h3M70 10h3M74 10h3M2 11h2M6 11h3M10 11h3M14 11h2M23 11h5M30 11h3M34 11h3M43 11h5M50 11h3M54 11h3M63 11h5M70 11h3M74 11h3M2 12h2M6 12h10M23 12h5M30 12h7M43 12h5M50 12h7M63 12h5M70 12h7M2 13h14M23 13h14M43 13h14M63 13h14M3 14h12M24 14h12M44 14h12M64 14h12M3 15h12M24 15h12M44 15h12M64 15h12M4 16h10M25 16h10M45 16h10M65 16h10M5 17h8M26 17h8M46 17h8M66 17h8M8 18h4M32 18h2M52 18h2M72 18h2M2 25h3M15 25h1M23 25h3M43 25h3M63 25h3M2 26h3M15 26h1M23 26h3M43 26h3M63 26h3M2 27h3M15 27h1M23 27h3M43 27h3M63 27h3M2 28h3M15 28h1M23 28h3M43 28h3M63 28h3M2 29h3M15 29h1M23 29h3M43 29h3M63 29h3" />
<path stroke="#17181c" d="M33 10h1M53 10h1M73 10h1M33 11h1M53 11h1M73 11h1" />
<path stroke="#957f74" d="M5 18h3M12 18h1M26 18h6M46 18h6M66 18h6M4 19h10M25 19h9M45 19h9M65 19h9M3 20h12M25 20h9M45 20h9M65 20h9M3 21h12M24 21h10M44 21h10M64 21h10M2 22h14M24 22h10M44 22h10M64 22h10M2 23h3M6 23h8M15 23h1M23 23h11M43 23h11M63 23h11M2 24h3M6 24h8M15 24h1M23 24h11M43 24h11M63 24h11M6 25h8M27 25h7M47 25h7M67 25h7M6 26h8M27 26h7M47 26h7M67 26h7M6 27h8M27 27h7M47 27h7M67 27h7M6 28h8M27 28h7M47 28h7M67 28h7M6 29h8M27 29h7M47 29h7M67 29h7" />
<path stroke="#49689e" d="M5 30h9M26 30h8M46 30h8M66 30h8" />
<path stroke="#343956" d="M5 31h9M25 31h9M46 31h8M66 31h8M5 32h9M25 32h9M46 32h8M66 32h8M5 33h9M25 33h9M46 33h8M66 33h8M5 34h4M11 34h3M25 34h4M31 34h3M46 34h4M52 34h2M66 34h3M71 34h3M5 35h3M11 35h3M25 35h3M31 35h3M46 35h3M52 35h3M65 35h3M71 35h3M5 36h3M11 36h3M25 36h3M31 36h3M46 36h3M52 36h3M65 36h3M71 36h3M5 37h3M11 37h3M25 37h3M31 37h3M46 37h3M52 37h3M65 37h3M71 37h3" />
</svg>