<svg xmlns="http://www.w3.org/2000/svg" viewBox="0 -0.5 300 200" shape-rendering="crispEdges">
<metadata>Made with Pixels to Svg https://codepen.io/shshaw/pen/XbxvNj</metadata>
<path stroke="#49b0f2" d="M0 0h300M0 1h300M0 2h300M0 3h300M0 4h300M0 5h300M0 6h300M0 7h300M0 8h300M0 9h300M0 10h300M0 11h300M0 12h300M0 13h300M0 14h300M0 15h300M0 16h300M0 17h300M0 18h300M0 19h300M0 20h300M0 21h300M0 22h300M0 23h300M0 24h300M0 25h300M0 26h300M0 27h300M0 28h300M0 29h300M0 30h300M0 31h300M0 32h300M0 33h300M0 34h300M0 35h300M0 36h300M0 37h300M0 38h300M0 39h300M0 40h300M0 41h300M0 42h300M0 43h300M0 44h300M0 45h300M0 46h300M0 47h300M0 48h300M0 49h300M0 50h300M0 51h300M0 52h300M0 53h300M0 54h300M0 55h300M0 56h300M0 57h300M0 58h300M0 59h300M0 60h300M0 61h300M0 62h300M0 63h300M0 64h300M0 65h300M0 66h300M0 67h300M0 68h300M0 69h300M0 70h300M0 71h300M0 72h300M0 73h300M0 74h300M0 75h300M0 76h300M0 77h300M0 78h300M0 79h300M0 80h300M0 81h300M0 82h300M0 83h300M0 84h300M0 85h300M0 86h300M0 87h300M0 88h300M0 89h300M0 90h300M0 91h300M0 92h300M0 93h300M0 94h300M0 95h300M0 96h300M0 97h300M0 98h300M0 99h300M0 100h300M0 101h300M0 102h300M0 103h300M0 104h300M0 105h300M0 106h300M0 107h300M0 108h300M0 109h300M0 110h300M0 111h300M0 112h300M0 113h300M0 114h300M0 115h300M0 116h300M0 117h300M0 118h300M0 119h300M0 120h300M0 121h300M0 122h300M0 123h300M0 124h300M0 125h300M0 126h300M0 127h300M0 128h300M0 129h300M0 130h300M0 131h300M0 132h300M0 133h300M0 134h300M0 135h300M0 136h300M0 137h300M0 138h300M0 139h300M0 140h300M0 141h300M0 142h300M0 143h300M0 144h300M0 145h300M0 146h300M0 147h300M0 148h300M0 149h300M0 150h300M0 151h300M0 152h300M0 153h300M0 154h300M0 155h300M0 156h300M0 157h300M0 158h300M0 159h300M0 160h300M0 161h300M0 162h300M0 163h300M0 164h300M0 165h300M0 166h300M0 167h300M0 168h300M0 169h300M0 170h300M0 171h300M0 172h300M0 173h300M0 174h300M0 175h300M0 176h300M0 177h300M0 178h300M0 179h300M0 180h300M0 181h300M0 182h300M0 183h300M0 184h300M0 185h300M0 186h300M0 187h300M0 188h300M0 189h300M0 190h300M0 191h300M0 192h300M0 193h300M0 194h300M0 195h300M0 196h300M0 197h300M0 198h300M0 199h300" />
</svg>