<svg xmlns="http://www.w3.org/2000/svg" viewBox="0 -0.5 700 150" shape-rendering="crispEdges">
<metadata>Made with Pixels to Svg https://codepen.io/shshaw/pen/XbxvNj</metadata>
<path stroke="#ffffff" d="M166 5h21M166 6h21M166 7h21M120 8h20M171 8h23M120 9h20M171 9h23M120 10h20M171 10h23M120 11h20M171 11h23M120 12h20M171 12h23M103 13h43M163 13h35M103 14h43M163 14h35M103 15h43M163 15h35M92 16h62M157 16h51M92 17h62M157 17h51M92 18h62M157 18h51M92 19h57M154 19h58M92 20h57M154 20h58M92 21h57M154 21h58M82 22h67M154 22h58M82 23h67M154 23h58M82 24h67M154 24h58M58 25h7M82 25h133M58 26h7M82 26h133M58 27h7M82 27h133M58 28h7M82 28h133M58 29h7M82 29h133M51 30h17M79 30h136M51 31h17M79 31h136M51 32h17M79 32h136M51 33h21M79 33h136M51 34h21M79 34h136M51 35h21M79 35h136M51 36h24M79 36h136M51 37h24M79 37h136M51 38h24M79 38h136M574 38h17M48 39h167M574 39h17M48 40h167M574 40h17M48 41h167M574 41h17M48 42h181M557 42h43M48 43h181M557 43h43M48 44h181M557 44h43M42 45h193M554 45h46M42 46h193M554 46h46M42 47h193M554 47h46M42 48h193M554 48h46M42 49h193M554 49h46M42 50h193M554 50h50M42 51h193M554 51h50M42 52h193M554 52h50M34 53h8M54 53h181M543 53h61M628 53h18M34 54h8M54 54h181M543 54h61M628 54h18M34 55h8M54 55h181M543 55h61M628 55h18M34 56h8M82 56h112M201 56h37M543 56h61M614 56h35M34 57h8M82 57h112M201 57h37M543 57h61M614 57h35M34 58h8M82 58h112M201 58h37M543 58h61M614 58h35M31 59h11M89 59h45M163 59h28M212 59h17M540 59h64M611 59h41M31 60h11M89 60h45M163 60h28M212 60h17M540 60h64M611 60h41M31 61h11M89 61h45M163 61h28M212 61h17M540 61h64M611 61h41M31 62h11M89 62h45M163 62h28M212 62h17M381 62h17M540 62h112M31 63h6M100 63h26M215 63h6M381 63h17M540 63h112M31 64h6M100 64h26M215 64h6M381 64h17M540 64h112M31 65h6M100 65h26M215 65h6M381 65h17M540 65h112M31 66h6M100 66h26M215 66h6M381 66h17M540 66h112M364 67h40M540 67h123M364 68h40M540 68h123M364 69h40M540 69h123M358 70h46M540 70h126M358 71h46M540 71h126M358 72h46M540 72h126M353 73h55M529 73h5M540 73h126M353 74h55M529 74h5M540 74h126M353 75h55M529 75h5M540 75h126M353 76h55M526 76h11M540 76h126M353 77h55M526 77h11M540 77h126M353 78h55M526 78h11M540 78h126M353 79h55M523 79h143M316 80h20M350 80h62M523 80h143M316 81h20M350 81h62M523 81h143M316 82h20M350 82h62M523 82h143M310 83h23M350 83h62M523 83h143M310 84h23M350 84h62M518 84h151M310 85h23M350 85h62M518 85h151M310 86h23M350 86h62M518 86h151M306 87h35M350 87h68M518 87h151M306 88h35M350 88h68M518 88h151M306 89h35M350 89h68M518 89h151M306 90h35M350 90h68M518 90h148M296 91h51M350 91h72M518 91h148M296 92h51M350 92h72M518 92h148M296 93h51M350 93h72M518 93h5M540 93h126M292 94h58M353 94h69M518 94h5M540 94h126M292 95h58M353 95h69M518 95h5M540 95h126M292 96h58M353 96h69M546 96h109M292 97h58M353 97h69M546 97h109M292 98h58M353 98h69M546 98h109M292 99h58M353 99h69M546 99h109M289 100h133M439 100h6M546 100h109M289 101h133M439 101h6M557 101h40M635 101h17M289 102h133M439 102h6M557 102h40M635 102h17M289 103h133M439 103h6M557 103h40M635 103h17M289 104h133M439 104h6M289 105h136M436 105h17M289 106h136M436 106h17M289 107h136M436 107h17M289 108h136M432 108h21M289 109h136M432 109h21M289 110h136M432 110h21M289 111h136M428 111h25M289 112h136M428 112h25M289 113h136M428 113h25M289 114h167M289 115h167M289 116h167M275 117h181M275 118h181M275 119h181M275 120h181M275 121h181M269 122h187M269 123h187M269 124h187M269 125h195M269 126h195M269 127h195M269 128h195M269 129h195M269 130h195M264 131h39M310 131h154M264 132h39M310 132h154M264 133h39M310 133h154M275 134h17M313 134h28M370 134h45M453 134h11M275 135h17M313 135h28M370 135h45M453 135h11M275 136h17M313 136h28M370 136h45M453 136h11M275 137h17M313 137h28M370 137h45M453 137h11M275 138h17M313 138h28M370 138h45M453 138h11M283 139h6M378 139h26M453 139h6M283 140h6M378 140h26M453 140h6M283 141h6M378 141h26M453 141h6" />
<path stroke="#c6e3f3" d="M112 8h8M160 8h11M112 9h8M160 9h11M112 10h8M160 10h11M112 11h8M160 11h11M112 12h8M160 12h11M157 13h6M157 14h6M157 15h6M154 16h3M154 17h3M154 18h3M86 19h6M149 19h5M86 20h6M149 20h5M86 21h6M149 21h5M149 22h5M149 23h5M149 24h5M65 25h7M65 26h7M65 27h7M65 28h7M65 29h7M68 30h7M68 31h7M68 32h7M72 33h3M72 34h3M72 35h3M75 36h4M75 37h4M75 38h4M563 38h11M215 39h11M563 39h11M215 40h11M563 40h11M215 41h11M563 41h11M546 50h8M546 51h8M546 52h8M42 53h12M618 53h10M42 54h12M618 54h10M42 55h12M618 55h10M42 56h40M194 56h7M540 56h3M42 57h40M194 57h7M540 57h3M42 58h40M194 58h7M540 58h3M42 59h47M134 59h29M191 59h21M229 59h14M604 59h7M42 60h47M134 60h29M191 60h21M229 60h14M604 60h7M42 61h47M134 61h29M191 61h21M229 61h14M604 61h7M42 62h47M134 62h29M191 62h21M229 62h14M375 62h6M652 62h6M37 63h63M126 63h89M221 63h22M375 63h6M652 63h6M37 64h63M126 64h89M221 64h22M375 64h6M652 64h6M37 65h63M126 65h89M221 65h22M375 65h6M652 65h6M37 66h63M126 66h89M221 66h22M375 66h6M652 66h6M31 67h212M31 68h212M31 69h212M31 70h212M537 70h3M537 71h3M537 72h3M534 73h6M534 74h6M534 75h6M537 76h3M537 77h3M537 78h3M333 83h11M412 83h6M333 84h11M412 84h6M333 85h11M412 85h6M333 86h11M412 86h6M341 87h6M341 88h6M341 89h6M341 90h6M666 90h3M347 91h3M666 91h3M347 92h3M666 92h3M347 93h3M523 93h17M666 93h3M350 94h3M523 94h17M666 94h3M350 95h3M523 95h17M666 95h3M350 96h3M523 96h23M655 96h14M350 97h3M523 97h23M655 97h14M350 98h3M523 98h23M655 98h14M350 99h3M523 99h23M655 99h14M432 100h7M523 100h23M655 100h14M432 101h7M523 101h34M597 101h38M652 101h14M432 102h7M523 102h34M597 102h38M652 102h14M432 103h7M523 103h34M597 103h38M652 103h14M432 104h7M526 104h137M428 105h8M526 105h137M428 106h8M526 106h137M428 107h8M529 107h126M428 108h4M529 108h126M428 109h4M529 109h126M428 110h4M529 110h126M425 111h3M529 111h126M425 112h3M425 113h3M278 114h11M278 115h11M278 116h11M303 131h7M303 132h7M303 133h7M264 134h11M292 134h21M341 134h29M415 134h38M264 135h11M292 135h21M341 135h29M415 135h38M264 136h11M292 136h21M341 136h29M415 136h38M264 137h11M292 137h21M341 137h29M415 137h38M264 138h11M292 138h21M341 138h29M415 138h38M264 139h19M289 139h89M404 139h49M264 140h19M289 140h89M404 140h49M264 141h19M289 141h89M404 141h49M272 142h178M272 143h178M272 144h178" />
</svg>