<svg xmlns="http://www.w3.org/2000/svg" viewBox="0 -0.5 300 50" shape-rendering="crispEdges">
<metadata>Made with Pixels to Svg https://codepen.io/shshaw/pen/XbxvNj</metadata>
<path stroke="#000000" d="M0 0h300M4 9h5M16 9h1M24 9h5M36 9h1M44 9h5M56 9h1M64 9h5M76 9h1M84 9h5M96 9h1M104 9h5M116 9h1M124 9h5M136 9h1M144 9h5M156 9h1M164 9h5M176 9h1M184 9h5M196 9h1M204 9h5M216 9h1M224 9h5M236 9h1M244 9h5M256 9h1M264 9h5M276 9h1M284 9h5M296 9h1M3 10h1M9 10h3M15 10h1M17 10h2M23 10h1M29 10h3M35 10h1M37 10h2M43 10h1M49 10h3M55 10h1M57 10h2M63 10h1M69 10h3M75 10h1M77 10h2M83 10h1M89 10h3M95 10h1M97 10h2M103 10h1M109 10h3M115 10h1M117 10h2M123 10h1M129 10h3M135 10h1M137 10h2M143 10h1M149 10h3M155 10h1M157 10h2M163 10h1M169 10h3M175 10h1M177 10h2M183 10h1M189 10h3M195 10h1M197 10h2M203 10h1M209 10h3M215 10h1M217 10h2M223 10h1M229 10h3M235 10h1M237 10h2M243 10h1M249 10h3M255 10h1M257 10h2M263 10h1M269 10h3M275 10h1M277 10h2M283 10h1M289 10h3M295 10h1M297 10h2M2 11h1M12 11h1M15 11h1M19 11h1M22 11h1M32 11h1M35 11h1M39 11h1M42 11h1M52 11h1M55 11h1M59 11h1M62 11h1M72 11h1M75 11h1M79 11h1M82 11h1M92 11h1M95 11h1M99 11h1M102 11h1M112 11h1M115 11h1M119 11h1M122 11h1M132 11h1M135 11h1M139 11h1M142 11h1M152 11h1M155 11h1M159 11h1M162 11h1M172 11h1M175 11h1M179 11h1M182 11h1M192 11h1M195 11h1M199 11h1M202 11h1M212 11h1M215 11h1M219 11h1M222 11h1M232 11h1M235 11h1M239 11h1M242 11h1M252 11h1M255 11h1M259 11h1M262 11h1M272 11h1M275 11h1M279 11h1M282 11h1M292 11h1M295 11h1M299 11h1M0 12h2M13 12h2M20 12h2M33 12h2M40 12h2M53 12h2M60 12h2M73 12h2M80 12h2M93 12h2M100 12h2M113 12h2M120 12h2M133 12h2M140 12h2M153 12h2M160 12h2M173 12h2M180 12h2M193 12h2M200 12h2M213 12h2M220 12h2M233 12h2M240 12h2M253 12h2M260 12h2M273 12h2M280 12h2M293 12h2" />
<path stroke="#8dd95b" d="M0 1h300M0 2h300" />
<path stroke="#2eb534" d="M0 3h300M0 4h300M0 5h300M0 6h300M0 7h3M9 7h6M17 7h6M29 7h6M37 7h6M49 7h6M57 7h6M69 7h6M77 7h6M89 7h6M97 7h6M109 7h6M117 7h6M129 7h6M137 7h6M149 7h6M157 7h6M169 7h6M177 7h6M189 7h6M197 7h6M209 7h6M217 7h6M229 7h6M237 7h6M249 7h6M257 7h6M269 7h6M277 7h6M289 7h6M297 7h3M0 8h2M12 8h2M19 8h3M32 8h2M39 8h3M52 8h2M59 8h3M72 8h2M79 8h3M92 8h2M99 8h3M112 8h2M119 8h3M132 8h2M139 8h3M152 8h2M159 8h3M172 8h2M179 8h3M192 8h2M199 8h3M212 8h2M219 8h3M232 8h2M239 8h3M252 8h2M259 8h3M272 8h2M279 8h3M292 8h2M299 8h1M0 9h1M20 9h1M40 9h1M60 9h1M80 9h1M100 9h1M120 9h1M140 9h1M160 9h1M180 9h1M200 9h1M220 9h1M240 9h1M260 9h1M280 9h1" />
<path stroke="#157c47" d="M3 7h6M15 7h2M23 7h6M35 7h2M43 7h6M55 7h2M63 7h6M75 7h2M83 7h6M95 7h2M103 7h6M115 7h2M123 7h6M135 7h2M143 7h6M155 7h2M163 7h6M175 7h2M183 7h6M195 7h2M203 7h6M215 7h2M223 7h6M235 7h2M243 7h6M255 7h2M263 7h6M275 7h2M283 7h6M295 7h2M2 8h10M14 8h5M22 8h10M34 8h5M42 8h10M54 8h5M62 8h10M74 8h5M82 8h10M94 8h5M102 8h10M114 8h5M122 8h10M134 8h5M142 8h10M154 8h5M162 8h10M174 8h5M182 8h10M194 8h5M202 8h10M214 8h5M222 8h10M234 8h5M242 8h10M254 8h5M262 8h10M274 8h5M282 8h10M294 8h5M1 9h3M9 9h7M17 9h3M21 9h3M29 9h7M37 9h3M41 9h3M49 9h7M57 9h3M61 9h3M69 9h7M77 9h3M81 9h3M89 9h7M97 9h3M101 9h3M109 9h7M117 9h3M121 9h3M129 9h7M137 9h3M141 9h3M149 9h7M157 9h3M161 9h3M169 9h7M177 9h3M181 9h3M189 9h7M197 9h3M201 9h3M209 9h7M217 9h3M221 9h3M229 9h7M237 9h3M241 9h3M249 9h7M257 9h3M261 9h3M269 9h7M277 9h3M281 9h3M289 9h7M297 9h3M0 10h3M12 10h3M19 10h4M32 10h3M39 10h4M52 10h3M59 10h4M72 10h3M79 10h4M92 10h3M99 10h4M112 10h3M119 10h4M132 10h3M139 10h4M152 10h3M159 10h4M172 10h3M179 10h4M192 10h3M199 10h4M212 10h3M219 10h4M232 10h3M239 10h4M252 10h3M259 10h4M272 10h3M279 10h4M292 10h3M299 10h1M0 11h2M13 11h2M20 11h2M33 11h2M40 11h2M53 11h2M60 11h2M73 11h2M80 11h2M93 11h2M100 11h2M113 11h2M120 11h2M133 11h2M140 11h2M153 11h2M160 11h2M173 11h2M180 11h2M193 11h2M200 11h2M213 11h2M220 11h2M233 11h2M240 11h2M253 11h2M260 11h2M273 11h2M280 11h2M293 11h2" />
<path stroke="#87452b" d="M4 10h5M16 10h1M24 10h5M36 10h1M44 10h5M56 10h1M64 10h5M76 10h1M84 10h5M96 10h1M104 10h5M116 10h1M124 10h5M136 10h1M144 10h5M156 10h1M164 10h5M176 10h1M184 10h5M196 10h1M204 10h5M216 10h1M224 10h5M236 10h1M244 10h5M256 10h1M264 10h5M276 10h1M284 10h5M296 10h1M3 11h9M16 11h3M23 11h9M36 11h3M43 11h9M56 11h3M63 11h9M76 11h3M83 11h9M96 11h3M103 11h9M116 11h3M123 11h9M136 11h3M143 11h9M156 11h3M163 11h9M176 11h3M183 11h9M196 11h3M203 11h9M216 11h3M223 11h9M236 11h3M243 11h9M256 11h3M263 11h9M276 11h3M283 11h9M296 11h3M2 12h2M9 12h4M15 12h5M22 12h2M29 12h4M35 12h5M42 12h2M49 12h4M55 12h5M62 12h2M69 12h4M75 12h5M82 12h2M89 12h4M95 12h5M102 12h2M109 12h4M115 12h5M122 12h2M129 12h4M135 12h5M142 12h2M149 12h4M155 12h5M162 12h2M169 12h4M175 12h5M182 12h2M189 12h4M195 12h5M202 12h2M209 12h4M215 12h5M222 12h2M229 12h4M235 12h5M242 12h2M249 12h4M255 12h5M262 12h2M269 12h4M275 12h5M282 12h2M289 12h4M295 12h5M0 13h3M12 13h5M19 13h4M32 13h5M39 13h4M52 13h5M59 13h4M72 13h5M79 13h4M92 13h5M99 13h4M112 13h5M119 13h4M132 13h5M139 13h4M152 13h5M159 13h4M172 13h5M179 13h4M192 13h5M199 13h4M212 13h5M219 13h4M232 13h5M239 13h4M252 13h5M259 13h4M272 13h5M279 13h4M292 13h5M299 13h1M0 14h2M13 14h2M20 14h2M33 14h2M40 14h2M53 14h2M60 14h2M73 14h2M80 14h2M93 14h2M100 14h2M113 14h2M120 14h2M133 14h2M140 14h2M153 14h2M160 14h2M173 14h2M180 14h2M193 14h2M200 14h2M213 14h2M220 14h2M233 14h2M240 14h2M253 14h2M260 14h2M273 14h2M280 14h2M293 14h2" />
<path stroke="#ae6339" d="M4 12h5M24 12h5M44 12h5M64 12h5M84 12h5M104 12h5M124 12h5M144 12h5M164 12h5M184 12h5M204 12h5M224 12h5M244 12h5M264 12h5M284 12h5M3 13h9M17 13h2M23 13h9M37 13h2M43 13h9M57 13h2M63 13h9M77 13h2M83 13h9M97 13h2M103 13h9M117 13h2M123 13h9M137 13h2M143 13h9M157 13h2M163 13h9M177 13h2M183 13h9M197 13h2M203 13h9M217 13h2M223 13h9M237 13h2M243 13h9M257 13h2M263 13h9M277 13h2M283 13h9M297 13h2M2 14h11M15 14h5M22 14h11M35 14h5M42 14h11M55 14h5M62 14h11M75 14h5M82 14h11M95 14h5M102 14h11M115 14h5M122 14h11M135 14h5M142 14h11M155 14h5M162 14h11M175 14h5M182 14h11M195 14h5M202 14h11M215 14h5M222 14h11M235 14h5M242 14h11M255 14h5M262 14h11M275 14h5M282 14h11M295 14h5M0 15h300M0 16h300M0 17h300M0 18h300M0 19h300M0 20h300M0 21h300M0 22h300M0 23h300M0 24h300M0 25h300M0 26h300M0 27h300M0 28h300M0 29h300M0 30h300M0 31h300M0 32h300M0 33h300M0 34h300M0 35h300M0 36h300M0 37h300M0 38h300M0 39h300M0 40h300M0 41h300M0 42h300M0 43h300M0 44h300M0 45h300M0 46h300M0 47h300M0 48h300M0 49h300" />
</svg>