<svg xmlns="http://www.w3.org/2000/svg" viewBox="0 -0.5 86 74" shape-rendering="crispEdges">
<metadata>Made with Pixels to Svg https://codepen.io/shshaw/pen/XbxvNj</metadata>
<path stroke="#000000" d="M41 0h4M39 1h2M45 1h2M37 2h2M47 2h2M35 3h2M49 3h2M33 4h2M51 4h2M31 5h2M53 5h2M29 6h2M41 6h4M55 6h2M27 7h2M39 7h2M45 7h2M57 7h2M25 8h2M37 8h2M47 8h2M59 8h2M23 9h2M35 9h2M49 9h2M61 9h2M21 10h2M33 10h2M51 10h2M63 10h2M19 11h2M31 11h2M53 11h2M65 11h2M17 12h2M29 12h2M55 12h2M67 12h2M15 13h2M27 13h2M57 13h2M69 13h2M13 14h2M25 14h2M59 14h2M71 14h2M11 15h2M23 15h2M61 15h2M73 15h2M9 16h2M21 16h2M63 16h2M75 16h2M7 17h2M19 17h2M65 17h2M77 17h2M5 18h2M17 18h2M67 18h2M79 18h2M3 19h2M15 19h3M68 19h3M81 19h2M2 20h1M13 20h2M17 20h1M68 20h1M71 20h2M83 20h1M1 21h1M11 21h2M17 21h1M68 21h1M73 21h2M84 21h1M0 22h1M9 22h3M17 22h1M68 22h1M74 22h3M85 22h1M0 23h1M7 23h2M11 23h1M17 23h1M68 23h1M74 23h1M77 23h2M85 23h1M0 24h1M6 24h1M11 24h1M17 24h1M68 24h1M74 24h1M79 24h1M85 24h1M0 25h1M6 25h1M11 25h1M17 25h1M68 25h1M74 25h1M79 25h1M85 25h1M1 26h5M11 26h1M17 26h1M68 26h1M74 26h1M80 26h5M11 27h1M17 27h1M68 27h1M74 27h1M11 28h1M17 28h1M68 28h1M74 28h1M11 29h1M17 29h1M68 29h1M74 29h1M11 30h1M17 30h1M68 30h1M74 30h1M11 31h1M17 31h1M68 31h1M74 31h1M11 32h1M17 32h1M68 32h1M74 32h1M11 33h1M17 33h1M68 33h1M74 33h1M11 34h1M17 34h1M32 34h22M68 34h1M74 34h1M11 35h1M17 35h1M31 35h1M54 35h1M68 35h1M74 35h1M11 36h1M17 36h1M31 36h1M33 36h20M54 36h1M68 36h1M74 36h1M11 37h1M17 37h1M31 37h1M33 37h1M52 37h1M54 37h1M68 37h1M74 37h1M11 38h1M17 38h1M31 38h1M33 38h1M52 38h1M54 38h1M68 38h1M74 38h1M11 39h1M17 39h1M31 39h1M33 39h1M52 39h1M54 39h1M68 39h1M74 39h1M11 40h1M17 40h1M31 40h1M33 40h1M52 40h1M54 40h1M68 40h1M74 40h1M11 41h1M17 41h1M31 41h1M33 41h1M52 41h1M54 41h1M68 41h1M74 41h1M11 42h1M17 42h1M31 42h1M33 42h1M52 42h1M54 42h1M68 42h1M74 42h1M11 43h1M17 43h1M31 43h1M33 43h1M52 43h1M54 43h1M68 43h1M74 43h1M11 44h1M17 44h1M31 44h1M33 44h1M52 44h1M54 44h1M68 44h1M74 44h1M11 45h1M17 45h1M31 45h1M33 45h1M52 45h1M54 45h1M68 45h1M74 45h1M11 46h1M17 46h1M31 46h1M33 46h1M52 46h1M54 46h1M68 46h1M74 46h1M11 47h1M17 47h1M31 47h1M33 47h1M52 47h1M54 47h1M68 47h1M74 47h1M11 48h1M17 48h1M31 48h1M33 48h1M52 48h1M54 48h1M68 48h1M74 48h1M11 49h1M17 49h1M31 49h1M33 49h1M52 49h1M54 49h1M68 49h1M74 49h1M11 50h1M17 50h1M31 50h1M33 50h1M52 50h1M54 50h1M68 50h1M74 50h1M11 51h1M17 51h1M31 51h1M33 51h1M52 51h1M54 51h1M68 51h1M74 51h1M11 52h1M17 52h1M31 52h1M33 52h1M52 52h1M54 52h1M68 52h1M74 52h1M11 53h1M17 53h1M31 53h1M33 53h1M52 53h1M54 53h1M68 53h1M74 53h1M11 54h1M17 54h1M31 54h1M33 54h1M52 54h1M54 54h1M68 54h1M74 54h1M11 55h1M17 55h1M31 55h1M33 55h1M52 55h1M54 55h1M68 55h1M74 55h1M11 56h1M17 56h1M31 56h1M33 56h1M52 56h1M54 56h1M68 56h1M74 56h1M11 57h1M17 57h1M31 57h1M33 57h1M52 57h1M54 57h1M68 57h1M74 57h1M11 58h1M17 58h1M31 58h1M33 58h1M52 58h1M54 58h1M68 58h1M74 58h1M11 59h1M17 59h1M31 59h1M33 59h1M52 59h1M54 59h1M68 59h1M74 59h1M11 60h1M17 60h1M31 60h1M33 60h1M52 60h1M54 60h1M68 60h1M74 60h1M11 61h1M17 61h1M31 61h1M33 61h1M52 61h1M54 61h1M68 61h1M74 61h1M11 62h1M17 62h1M31 62h1M33 62h1M52 62h1M54 62h1M68 62h1M74 62h1M11 63h1M17 63h1M31 63h1M33 63h1M52 63h1M54 63h1M68 63h1M74 63h1M11 64h1M17 64h1M31 64h1M33 64h1M52 64h1M54 64h1M68 64h1M74 64h1M11 65h1M17 65h1M31 65h1M33 65h1M52 65h1M54 65h1M68 65h1M74 65h1M11 66h1M17 66h1M31 66h1M33 66h1M52 66h1M54 66h1M68 66h1M74 66h1M11 67h1M17 67h1M31 67h1M33 67h1M52 67h1M54 67h1M68 67h1M74 67h1M11 68h1M17 68h1M31 68h1M33 68h1M52 68h1M54 68h1M68 68h1M74 68h1M11 69h1M17 69h1M31 69h1M33 69h1M52 69h1M54 69h1M68 69h1M74 69h1M11 70h1M17 70h1M31 70h1M33 70h1M52 70h1M54 70h1M68 70h1M74 70h1M11 71h1M17 71h1M31 71h1M33 71h1M52 71h1M54 71h1M68 71h1M74 71h1M11 72h1M17 72h1M31 72h1M33 72h1M52 72h1M54 72h1M68 72h1M74 72h1M11 73h1M17 73h1M31 73h1M33 73h1M52 73h1M54 73h1M68 73h1M74 73h1" />
<path stroke="#bd7f4e" d="M41 1h4M39 2h8M37 3h12M35 4h16M33 5h20M31 6h8M47 6h8M29 7h8M41 7h4M49 7h8M27 8h8M39 8h8M51 8h8M25 9h8M37 9h12M53 9h8M23 10h8M55 10h8M21 11h8M33 11h20M57 11h8M19 12h8M31 12h24M59 12h8M17 13h7M29 13h28M62 13h7M15 14h8M63 14h8M13 15h7M25 15h36M66 15h7M11 16h8M23 16h40M67 16h8M9 17h8M21 17h44M69 17h8M7 18h8M71 18h8M5 19h8M18 19h50M73 19h8M3 20h8M15 20h1M18 20h50M69 20h2M75 20h8M2 21h7M13 21h3M18 21h50M69 21h4M77 21h7M1 22h7M12 22h4M69 22h4M78 22h7M1 23h4M12 23h4M18 23h50M69 23h4M81 23h4M1 24h3M12 24h4M18 24h50M69 24h4M82 24h3M1 25h1M12 25h3M18 25h50M69 25h3M84 25h1M12 26h3M69 26h3M12 27h3M18 27h50M69 27h3M12 28h3M18 28h50M69 28h3M12 29h3M18 29h50M69 29h3M12 30h3M69 30h3M12 31h3M18 31h50M69 31h3M12 32h3M18 32h50M69 32h3M12 33h3M18 33h50M69 33h3M12 34h4M69 34h4M12 35h4M18 35h13M32 35h22M55 35h13M69 35h4M12 36h4M18 36h13M32 36h1M53 36h1M55 36h13M69 36h4M12 37h4M18 37h13M32 37h1M53 37h1M55 37h13M69 37h4M12 38h4M32 38h1M53 38h1M69 38h4M12 39h4M18 39h13M32 39h1M53 39h1M55 39h13M69 39h4M12 40h4M18 40h13M32 40h1M53 40h1M55 40h13M69 40h4M12 41h4M18 41h13M32 41h1M53 41h1M55 41h13M69 41h4M12 42h4M32 42h1M53 42h1M69 42h4M12 43h4M18 43h13M32 43h1M53 43h1M55 43h13M69 43h4M12 44h4M18 44h13M32 44h1M53 44h1M55 44h13M69 44h4M12 45h4M18 45h13M32 45h1M53 45h1M55 45h13M69 45h4M12 46h4M32 46h1M53 46h1M69 46h4M12 47h4M18 47h13M32 47h1M53 47h1M55 47h13M69 47h4M12 48h4M18 48h13M32 48h1M53 48h1M55 48h13M69 48h4M12 49h4M18 49h13M32 49h1M53 49h1M55 49h13M69 49h4M12 50h4M32 50h1M53 50h1M69 50h4M12 51h4M18 51h13M32 51h1M53 51h1M55 51h13M69 51h4M12 52h4M18 52h13M32 52h1M53 52h1M55 52h13M69 52h4M12 53h4M18 53h13M32 53h1M53 53h1M55 53h13M69 53h4M12 54h4M32 54h1M53 54h1M69 54h4M12 55h3M18 55h13M32 55h1M53 55h1M55 55h13M69 55h3M12 56h3M18 56h13M32 56h1M53 56h1M55 56h13M69 56h3M12 57h3M18 57h13M32 57h1M53 57h1M55 57h13M69 57h3M12 58h3M32 58h1M53 58h1M69 58h3M12 59h3M18 59h13M32 59h1M53 59h1M55 59h13M69 59h3M12 60h3M18 60h13M32 60h1M53 60h1M55 60h13M69 60h3M12 61h3M18 61h13M32 61h1M53 61h1M55 61h13M69 61h3M12 62h3M32 62h1M53 62h1M69 62h3M12 63h3M18 63h13M32 63h1M53 63h1M55 63h13M69 63h3M12 64h3M18 64h13M32 64h1M53 64h1M55 64h13M69 64h3M12 65h3M18 65h13M32 65h1M53 65h1M55 65h13M69 65h3M12 66h3M32 66h1M53 66h1M69 66h3M12 67h3M18 67h13M32 67h1M53 67h1M55 67h13M69 67h3M12 68h3M18 68h13M32 68h1M53 68h1M55 68h13M69 68h3M12 69h3M18 69h13M32 69h1M53 69h1M55 69h13M69 69h3M12 70h3M32 70h1M53 70h1M69 70h3M12 71h3M18 71h13M32 71h1M53 71h1M55 71h13M69 71h3M12 72h3M18 72h13M32 72h1M53 72h1M55 72h13M69 72h3M12 73h3M18 73h13M32 73h1M53 73h1M55 73h13M69 73h3" />
<path stroke="#9c5841" d="M39 6h2M45 6h2M37 7h2M47 7h2M35 8h2M49 8h2M33 9h2M51 9h2M31 10h2M35 10h16M53 10h2M29 11h2M55 11h2M27 12h2M57 12h2M24 13h3M59 13h3M23 14h2M27 14h32M61 14h2M20 15h3M63 15h3M19 16h2M65 16h2M17 17h2M67 17h2M15 18h2M19 18h48M69 18h2M13 19h2M71 19h2M11 20h2M16 20h1M73 20h2M9 21h2M16 21h1M75 21h2M8 22h1M16 22h1M18 22h50M73 22h1M77 22h1M5 23h2M16 23h1M73 23h1M79 23h2M4 24h2M16 24h1M73 24h1M80 24h2M2 25h4M15 25h2M72 25h2M80 25h4M15 26h2M18 26h50M72 26h2M15 27h2M72 27h2M15 28h2M72 28h2M15 29h2M72 29h2M15 30h2M18 30h50M72 30h2M15 31h2M72 31h2M15 32h2M72 32h2M15 33h2M72 33h2M16 34h1M18 34h14M54 34h14M73 34h1M16 35h1M73 35h1M16 36h1M73 36h1M16 37h1M73 37h1M16 38h1M18 38h13M34 38h18M55 38h13M73 38h1M16 39h1M73 39h1M16 40h1M73 40h1M16 41h1M73 41h1M16 42h1M18 42h13M55 42h13M73 42h1M16 43h1M73 43h1M16 44h1M73 44h1M16 45h1M73 45h1M16 46h1M18 46h13M55 46h13M73 46h1M16 47h1M73 47h1M16 48h1M73 48h1M16 49h1M73 49h1M16 50h1M18 50h13M55 50h13M73 50h1M16 51h1M73 51h1M16 52h1M73 52h1M16 53h1M73 53h1M16 54h1M18 54h13M55 54h13M73 54h1M15 55h2M72 55h2M15 56h2M72 56h2M15 57h2M72 57h2M15 58h2M18 58h13M55 58h13M72 58h2M15 59h2M72 59h2M15 60h2M72 60h2M15 61h2M72 61h2M15 62h2M18 62h13M55 62h13M72 62h2M15 63h2M72 63h2M15 64h2M72 64h2M15 65h2M72 65h2M15 66h2M18 66h13M55 66h13M72 66h2M15 67h2M72 67h2M15 68h2M72 68h2M15 69h2M72 69h2M15 70h2M18 70h13M55 70h13M72 70h2M15 71h2M72 71h2M15 72h2M72 72h2M15 73h2M72 73h2" />
<path stroke="#434343" d="M34 37h18M34 68h3M40 68h2M44 68h2M49 68h3M34 69h18M34 70h18M34 71h18M34 72h18M34 73h18" />
<path stroke="#1a542a" d="M34 39h18M34 40h18M34 41h18M34 42h18M34 43h18M34 44h18M34 45h18M34 46h18M34 47h18M34 48h18M34 49h6M41 49h7M49 49h3M34 50h6M41 50h7M49 50h3M34 51h6M41 51h7M49 51h3M34 52h6M41 52h7M49 52h3M34 53h1M36 53h4M41 53h7M49 53h3M34 54h1M36 54h4M41 54h7M49 54h3M34 55h1M36 55h4M41 55h7M49 55h3M34 56h1M36 56h4M41 56h7M49 56h3M34 57h1M36 57h4M41 57h7M49 57h3M34 58h1M36 58h4M41 58h7M49 58h3M34 59h2M37 59h4M42 59h6M49 59h3M34 60h2M37 60h4M42 60h7M50 60h2M34 61h2M37 61h4M42 61h7M50 61h2M34 62h2M37 62h4M42 62h7M50 62h2M34 63h2M37 63h4M42 63h7M50 63h2M34 64h2M37 64h4M42 64h7M50 64h2M34 65h2M37 65h4M42 65h7M50 65h2M34 66h2M37 66h4M42 66h7M50 66h2M37 67h3M42 67h2M46 67h3" />
<path stroke="#11431f" d="M40 49h1M48 49h1M40 50h1M48 50h1M40 51h1M48 51h1M40 52h1M48 52h1M35 53h1M40 53h1M48 53h1M35 54h1M40 54h1M48 54h1M35 55h1M40 55h1M48 55h1M35 56h1M40 56h1M48 56h1M35 57h1M40 57h1M48 57h1M35 58h1M40 58h1M48 58h1M36 59h1M41 59h1M48 59h1M36 60h1M41 60h1M49 60h1M36 61h1M41 61h1M49 61h1M36 62h1M41 62h1M49 62h1M36 63h1M41 63h1M49 63h1M36 64h1M41 64h1M49 64h1M36 65h1M41 65h1M49 65h1M36 66h1M41 66h1M49 66h1M34 67h3M40 67h2M44 67h2M49 67h3M37 68h3M42 68h2M46 68h3" />
</svg>