<svg xmlns="http://www.w3.org/2000/svg" viewBox="0 -0.5 46 40" shape-rendering="crispEdges">
<metadata>Made with Pixels to Svg https://codepen.io/shshaw/pen/XbxvNj</metadata>
<path stroke="#000000" d="M2 0h42M1 1h1M44 1h1M1 2h1M3 2h40M44 2h1M1 3h1M3 3h1M42 3h1M44 3h1M1 4h1M3 4h1M42 4h1M44 4h1M1 5h1M3 5h1M42 5h1M44 5h1M1 6h1M3 6h1M42 6h1M44 6h1M1 7h1M3 7h1M42 7h1M44 7h1M1 8h1M3 8h1M42 8h1M44 8h1M1 9h1M3 9h1M42 9h1M44 9h1M1 10h1M3 10h1M42 10h1M44 10h1M1 11h1M3 11h1M42 11h1M44 11h1M1 12h1M3 12h1M42 12h1M44 12h1M1 13h1M3 13h1M42 13h1M44 13h1M1 14h1M3 14h1M42 14h1M44 14h1M1 15h1M3 15h1M42 15h1M44 15h1M1 16h1M3 16h1M42 16h1M44 16h1M1 17h1M3 17h1M42 17h1M44 17h1M1 18h1M3 18h1M42 18h1M44 18h1M1 19h1M3 19h1M42 19h1M44 19h1M1 20h1M3 20h1M42 20h1M44 20h1M1 21h44M0 22h1M45 22h1M0 23h1M45 23h1M0 24h46M19 25h1M25 25h1M19 26h1M25 26h1M19 27h1M25 27h1M19 28h1M25 28h1M19 29h1M25 29h1M19 30h1M25 30h1M19 31h1M25 31h1M19 32h1M25 32h1M19 33h1M25 33h1M19 34h1M25 34h1M19 35h1M25 35h1M19 36h1M25 36h1M19 37h1M25 37h1M19 38h1M25 38h1M19 39h1M25 39h1" />
<path stroke="#bd7f4e" d="M2 1h42M2 2h1M43 2h1M2 3h1M43 3h1M2 4h1M43 4h1M2 5h1M43 5h1M2 6h1M43 6h1M2 7h1M43 7h1M2 8h1M43 8h1M2 9h1M43 9h1M2 10h1M43 10h1M2 11h1M43 11h1M2 12h1M43 12h1M2 13h1M43 13h1M2 14h1M43 14h1M2 15h1M43 15h1M2 16h1M43 16h1M2 17h1M43 17h1M2 18h1M43 18h1M2 19h1M43 19h1M2 20h1M43 20h1M1 22h44M20 25h2M20 26h2M20 27h2M20 28h2M20 29h2M20 30h2M20 31h2M20 32h2M20 33h2M20 34h2M20 35h2M20 36h2M20 37h2M20 38h2M20 39h2" />
<path stroke="#283d1c" d="M4 3h38M4 4h38M4 5h38M4 6h38M4 7h38M4 8h38M4 9h38M4 10h38M4 11h38M4 12h38M4 13h38M4 14h38M4 15h38M4 16h38M4 17h38M4 18h38M4 19h38M4 20h38" />
<path stroke="#9c5841" d="M1 23h44M22 25h3M22 26h3M22 27h3M22 28h3M22 29h3M22 30h3M22 31h3M22 32h3M22 33h3M22 34h3M22 35h3M22 36h3M22 37h3M22 38h3M22 39h3" />
</svg>