<svg xmlns="http://www.w3.org/2000/svg" viewBox="0 -0.5 72 58" shape-rendering="crispEdges">
<metadata>Made with Pixels to Svg https://codepen.io/shshaw/pen/XbxvNj</metadata>
<path stroke="#000000" d="M4 0h5M63 0h5M3 1h1M9 1h1M62 1h1M68 1h1M3 2h1M9 2h1M62 2h1M68 2h1M1 3h70M0 4h1M71 4h1M0 5h1M71 5h1M0 6h1M71 6h1M0 7h1M71 7h1M0 8h1M71 8h1M0 9h1M71 9h1M0 10h1M71 10h1M0 11h72M3 12h1M9 12h1M62 12h1M68 12h1M3 13h1M9 13h1M62 13h1M68 13h1M3 14h1M9 14h54M68 14h1M3 15h1M9 15h1M62 15h1M68 15h1M3 16h1M9 16h1M62 16h1M68 16h1M3 17h1M9 17h1M62 17h1M68 17h1M3 18h1M9 18h1M62 18h1M68 18h1M3 19h1M9 19h1M34 19h3M62 19h1M68 19h1M3 20h1M9 20h1M62 20h1M68 20h1M3 21h1M9 21h1M62 21h1M68 21h1M3 22h1M9 22h1M62 22h1M68 22h1M3 23h1M9 23h1M36 23h2M62 23h1M68 23h1M3 24h1M9 24h1M62 24h1M68 24h1M3 25h1M9 25h1M24 25h4M34 25h2M62 25h1M68 25h1M3 26h1M9 26h1M62 26h1M68 26h1M3 27h1M9 27h1M24 27h4M62 27h1M68 27h1M3 28h1M9 28h1M62 28h1M68 28h1M3 29h1M9 29h1M24 29h4M62 29h1M68 29h1M3 30h1M9 30h1M62 30h1M68 30h1M3 31h1M9 31h1M24 31h3M62 31h1M68 31h1M3 32h1M9 32h1M62 32h1M68 32h1M3 33h1M9 33h1M62 33h1M68 33h1M3 34h1M9 34h1M62 34h1M68 34h1M3 35h1M9 35h1M62 35h1M68 35h1M3 36h1M9 36h1M62 36h1M68 36h1M3 37h1M9 37h1M62 37h1M68 37h1M3 38h1M9 38h1M62 38h1M68 38h1M3 39h1M9 39h1M62 39h1M68 39h1M3 40h1M9 40h1M62 40h1M68 40h1M3 41h1M9 41h1M62 41h1M68 41h1M3 42h1M9 42h1M62 42h1M68 42h1M3 43h1M9 43h1M62 43h1M68 43h1M3 44h1M9 44h1M62 44h1M68 44h1M3 45h1M9 45h1M62 45h1M68 45h1M3 46h1M9 46h1M62 46h1M68 46h1M3 47h1M9 47h1M62 47h1M68 47h1M3 48h1M9 48h1M62 48h1M68 48h1M3 49h1M9 49h1M62 49h1M68 49h1M3 50h1M9 50h54M68 50h1M3 51h1M9 51h1M62 51h1M68 51h1M3 52h1M9 52h1M62 52h1M68 52h1M3 53h1M9 53h1M62 53h1M68 53h1M3 54h1M9 54h1M62 54h1M68 54h1M3 55h1M9 55h1M62 55h1M68 55h1M3 56h1M9 56h1M62 56h1M68 56h1M3 57h1M9 57h1M62 57h1M68 57h1" />
<path stroke="#bd7f4e" d="M4 1h2M63 1h2M4 2h2M63 2h2M4 12h2M63 12h2M4 13h2M63 13h2M4 14h2M63 14h2M4 15h2M10 15h52M63 15h2M4 16h2M10 16h52M63 16h2M4 17h2M10 17h52M63 17h2M4 18h2M63 18h2M4 19h2M10 19h4M20 19h13M39 19h13M58 19h4M63 19h2M4 20h2M10 20h4M20 20h13M39 20h13M58 20h4M63 20h2M4 21h1M10 21h4M20 21h13M39 21h13M58 21h4M63 21h1M4 22h1M63 22h1M4 23h1M10 23h4M20 23h13M39 23h4M49 23h3M58 23h4M63 23h1M4 24h1M10 24h4M20 24h3M29 24h4M39 24h4M49 24h3M58 24h4M63 24h1M4 25h1M10 25h4M20 25h3M29 25h4M39 25h4M49 25h3M58 25h4M63 25h1M4 26h1M63 26h1M4 27h1M10 27h13M29 27h14M49 27h13M63 27h1M4 28h1M10 28h13M29 28h14M49 28h13M63 28h1M4 29h1M10 29h13M29 29h14M49 29h13M63 29h1M4 30h1M63 30h1M4 31h1M10 31h13M29 31h14M49 31h13M63 31h1M4 32h1M10 32h13M29 32h33M63 32h1M4 33h1M10 33h52M63 33h1M4 34h1M63 34h1M4 35h1M10 35h52M63 35h1M4 36h1M10 36h52M63 36h1M4 37h1M10 37h52M63 37h1M4 38h1M63 38h1M4 39h1M10 39h52M63 39h1M4 40h1M10 40h52M63 40h1M4 41h1M10 41h52M63 41h1M4 42h2M63 42h2M4 43h2M10 43h52M63 43h2M4 44h2M10 44h52M63 44h2M4 45h2M10 45h52M63 45h2M4 46h2M63 46h2M4 47h2M10 47h52M63 47h2M4 48h2M10 48h52M63 48h2M4 49h2M10 49h52M63 49h2M4 50h2M63 50h2M4 51h2M63 51h2M4 52h2M63 52h2M4 53h2M63 53h2M4 54h2M63 54h2M4 55h2M63 55h2M4 56h2M63 56h2M4 57h2M63 57h2" />
<path stroke="#9c5841" d="M6 1h3M65 1h3M6 2h3M65 2h3M6 12h3M65 12h3M6 13h3M65 13h3M6 14h3M65 14h3M6 15h3M65 15h3M6 16h3M65 16h3M6 17h3M65 17h3M6 18h3M10 18h4M20 18h13M39 18h13M58 18h4M65 18h3M6 19h3M65 19h3M6 20h3M65 20h3M5 21h4M64 21h4M5 22h4M10 22h4M20 22h13M39 22h13M58 22h4M64 22h4M5 23h4M64 23h4M5 24h4M64 24h4M5 25h4M64 25h4M5 26h4M10 26h4M20 26h3M29 26h4M39 26h4M49 26h3M58 26h4M64 26h4M5 27h4M64 27h4M5 28h4M64 28h4M5 29h4M64 29h4M5 30h4M10 30h13M29 30h14M49 30h13M64 30h4M5 31h4M64 31h4M5 32h4M64 32h4M5 33h4M64 33h4M5 34h4M10 34h52M64 34h4M5 35h4M64 35h4M5 36h4M64 36h4M5 37h4M64 37h4M5 38h4M10 38h52M64 38h4M5 39h4M64 39h4M5 40h4M64 40h4M5 41h4M64 41h4M6 42h3M10 42h52M65 42h3M6 43h3M65 43h3M6 44h3M65 44h3M6 45h3M65 45h3M6 46h3M10 46h52M65 46h3M6 47h3M65 47h3M6 48h3M65 48h3M6 49h3M65 49h3M6 50h3M65 50h3M6 51h3M65 51h3M6 52h3M65 52h3M6 53h3M65 53h3M6 54h3M65 54h3M6 55h3M65 55h3M6 56h3M65 56h3M6 57h3M65 57h3" />
<path stroke="#729b4f" d="M1 4h1M13 4h2M17 4h2M25 4h2M37 4h2M45 4h3M53 4h3M61 4h2M65 4h3M1 5h1M17 5h2M25 5h2M37 5h2M53 5h3M61 5h2M17 6h2M25 6h2M7 8h2M19 8h1M27 8h2M31 8h3M39 8h1M43 8h1M51 8h2M59 8h3M63 8h3M67 8h2M7 9h2M19 9h1M31 9h3M39 9h1M43 9h1M51 9h2M59 9h3M67 9h2M39 10h1M43 10h1" />
<path stroke="#84be5a" d="M2 4h2M5 4h3M9 4h3M15 4h1M19 4h1M21 4h3M27 4h1M29 4h3M33 4h3M39 4h1M41 4h3M49 4h3M57 4h3M63 4h1M69 4h2M2 5h2M5 5h3M9 5h3M13 5h3M19 5h1M21 5h3M27 5h1M29 5h3M33 5h3M39 5h1M41 5h3M45 5h3M49 5h3M57 5h3M63 5h1M65 5h3M69 5h2M1 6h3M5 6h3M9 6h3M13 6h3M19 6h1M21 6h3M27 6h1M29 6h3M33 6h3M37 6h3M41 6h3M45 6h3M49 6h3M53 6h3M57 6h3M61 6h3M65 6h3M69 6h2M1 8h1M3 8h3M9 8h1M11 8h3M15 8h3M20 8h2M23 8h3M29 8h1M35 8h3M40 8h2M44 8h2M47 8h3M53 8h1M55 8h3M69 8h1M1 9h1M3 9h3M9 9h1M11 9h3M15 9h3M20 9h2M23 9h3M27 9h3M35 9h3M40 9h2M44 9h2M47 9h3M53 9h1M55 9h3M63 9h3M69 9h1M1 10h1M3 10h3M7 10h3M11 10h3M15 10h3M19 10h3M23 10h3M27 10h3M31 10h3M35 10h3M40 10h2M44 10h2M47 10h3M51 10h3M55 10h3M59 10h3M63 10h3M67 10h3" />
<path stroke="#505a3f" d="M4 4h1M8 4h1M12 4h1M16 4h1M20 4h1M24 4h1M28 4h1M32 4h1M36 4h1M40 4h1M44 4h1M48 4h1M52 4h1M56 4h1M60 4h1M64 4h1M68 4h1M4 5h1M8 5h1M12 5h1M16 5h1M20 5h1M24 5h1M28 5h1M32 5h1M36 5h1M40 5h1M44 5h1M48 5h1M52 5h1M56 5h1M60 5h1M64 5h1M68 5h1M4 6h1M8 6h1M12 6h1M16 6h1M20 6h1M24 6h1M28 6h1M32 6h1M36 6h1M40 6h1M44 6h1M48 6h1M52 6h1M56 6h1M60 6h1M64 6h1M68 6h1M1 7h70M2 8h1M6 8h1M10 8h1M14 8h1M18 8h1M22 8h1M26 8h1M30 8h1M34 8h1M38 8h1M42 8h1M46 8h1M50 8h1M54 8h1M58 8h1M62 8h1M66 8h1M70 8h1M2 9h1M6 9h1M10 9h1M14 9h1M18 9h1M22 9h1M26 9h1M30 9h1M34 9h1M38 9h1M42 9h1M46 9h1M50 9h1M54 9h1M58 9h1M62 9h1M66 9h1M70 9h1M2 10h1M6 10h1M10 10h1M14 10h1M18 10h1M22 10h1M26 10h1M30 10h1M34 10h1M38 10h1M42 10h1M46 10h1M50 10h1M54 10h1M58 10h1M62 10h1M66 10h1M70 10h1" />
<path stroke="#f0f7ef" d="M14 18h6M33 18h6M52 18h6M14 19h1M18 19h2M33 19h1M38 19h1M52 19h1M56 19h2M14 20h6M33 20h1M38 20h1M52 20h6M14 21h1M19 21h1M33 21h1M38 21h1M52 21h1M57 21h1M14 22h6M33 22h1M38 22h1M52 22h6M14 23h1M19 23h1M33 23h1M38 23h1M43 23h6M52 23h1M57 23h1M14 24h6M23 24h6M33 24h1M38 24h1M43 24h1M47 24h2M52 24h6M14 25h1M17 25h3M23 25h1M28 25h1M33 25h1M38 25h1M43 25h6M52 25h1M55 25h3M14 26h6M23 26h6M33 26h6M43 26h1M48 26h1M52 26h6M23 27h1M28 27h1M43 27h6M23 28h6M43 28h1M48 28h1M23 29h1M28 29h1M43 29h6M23 30h6M43 30h1M46 30h3M23 31h1M27 31h2M43 31h6M23 32h6" />
<path stroke="#aaaaaa" d="M15 19h3M53 19h3M15 21h4M53 21h4M15 23h4M53 23h4M15 25h2M53 25h2" />
<path stroke="#78d4f6" d="M37 19h1M34 20h4M34 21h4M34 22h4M34 23h2M34 24h4M36 25h2" />
<path stroke="#c71919" d="M44 24h3M44 26h4M44 28h4M44 30h2" />
</svg>