<svg xmlns="http://www.w3.org/2000/svg" viewBox="0 -0.5 104 123" shape-rendering="crispEdges">
<metadata>Made with Pixels to Svg https://codepen.io/shshaw/pen/XbxvNj</metadata>
<path stroke="#000000" d="M27 0h50M9 1h18M77 1h18M2 2h7M95 2h7M1 3h1M102 3h1M0 4h1M103 4h1M0 5h1M103 5h1M0 6h1M27 6h50M103 6h1M1 7h1M9 7h18M77 7h18M102 7h1M2 8h7M46 8h12M95 8h7M2 9h1M44 9h2M58 9h2M101 9h1M2 10h1M21 10h10M43 10h1M60 10h1M73 10h10M101 10h1M2 11h1M8 11h4M20 11h1M31 11h1M41 11h2M61 11h2M72 11h1M83 11h1M92 11h4M101 11h1M2 12h1M7 12h1M12 12h1M20 12h1M32 12h1M40 12h1M63 12h1M71 12h1M83 12h1M91 12h1M96 12h1M101 12h1M2 13h1M6 13h1M13 13h1M19 13h1M33 13h1M40 13h1M63 13h1M70 13h1M84 13h1M90 13h1M97 13h1M101 13h1M2 14h1M6 14h1M13 14h1M19 14h1M33 14h1M39 14h1M64 14h1M70 14h1M84 14h1M90 14h1M97 14h1M101 14h1M2 15h1M6 15h1M13 15h1M18 15h1M33 15h1M39 15h1M64 15h1M70 15h1M85 15h1M90 15h1M97 15h1M101 15h1M2 16h1M6 16h1M13 16h1M18 16h1M34 16h1M39 16h1M64 16h1M69 16h1M85 16h1M90 16h1M97 16h1M101 16h1M2 17h1M6 17h1M14 17h1M18 17h1M34 17h1M38 17h1M65 17h1M69 17h1M85 17h1M89 17h1M97 17h1M101 17h1M2 18h1M5 18h1M14 18h1M17 18h1M35 18h1M38 18h1M65 18h1M68 18h1M86 18h1M89 18h1M98 18h1M101 18h1M2 19h1M5 19h1M14 19h1M17 19h1M35 19h1M38 19h1M65 19h1M68 19h1M86 19h1M89 19h1M98 19h1M101 19h1M2 20h1M5 20h1M14 20h1M17 20h1M35 20h1M38 20h1M65 20h1M68 20h1M86 20h1M89 20h1M98 20h1M101 20h1M2 21h1M5 21h1M14 21h1M17 21h1M35 21h1M38 21h1M65 21h1M68 21h1M86 21h1M89 21h1M98 21h1M101 21h1M2 22h1M5 22h1M14 22h1M17 22h1M35 22h1M38 22h1M65 22h1M68 22h1M86 22h1M89 22h1M98 22h1M101 22h1M2 23h1M5 23h1M14 23h1M17 23h1M35 23h1M38 23h1M65 23h1M68 23h1M86 23h1M89 23h1M98 23h1M101 23h1M2 24h1M5 24h1M14 24h1M17 24h1M35 24h1M38 24h1M65 24h1M68 24h1M86 24h1M89 24h1M98 24h1M101 24h1M2 25h1M5 25h1M14 25h1M17 25h1M35 25h1M38 25h1M65 25h1M68 25h1M86 25h1M89 25h1M98 25h1M101 25h1M2 26h1M5 26h1M14 26h1M17 26h1M35 26h1M38 26h1M65 26h1M68 26h1M86 26h1M89 26h1M98 26h1M101 26h1M2 27h1M5 27h1M14 27h1M17 27h1M35 27h1M38 27h1M65 27h1M68 27h1M86 27h1M89 27h1M98 27h1M101 27h1M2 28h1M5 28h1M14 28h1M17 28h1M35 28h1M38 28h1M65 28h1M68 28h1M86 28h1M89 28h1M98 28h1M101 28h1M2 29h1M5 29h1M14 29h1M17 29h1M35 29h1M38 29h1M65 29h1M68 29h1M86 29h1M89 29h1M98 29h1M101 29h1M2 30h1M5 30h1M14 30h1M17 30h1M35 30h1M38 30h1M65 30h1M68 30h1M86 30h1M89 30h1M98 30h1M101 30h1M2 31h1M5 31h1M14 31h1M17 31h1M35 31h1M38 31h1M65 31h1M68 31h1M86 31h1M89 31h1M98 31h1M101 31h1M2 32h1M5 32h1M14 32h1M17 32h1M35 32h1M38 32h1M65 32h1M68 32h1M86 32h1M89 32h1M98 32h1M101 32h1M2 33h1M5 33h1M14 33h1M17 33h1M35 33h1M38 33h1M65 33h1M68 33h1M86 33h1M89 33h1M98 33h1M101 33h1M2 34h1M5 34h1M14 34h1M17 34h1M35 34h1M38 34h1M65 34h1M68 34h1M86 34h1M89 34h1M98 34h1M101 34h1M2 35h1M5 35h1M14 35h1M17 35h1M35 35h1M38 35h1M65 35h1M68 35h1M86 35h1M89 35h1M98 35h1M101 35h1M2 36h1M5 36h1M14 36h1M17 36h1M35 36h1M38 36h1M65 36h1M68 36h1M86 36h1M89 36h1M98 36h1M101 36h1M2 37h1M5 37h1M14 37h1M17 37h1M35 37h1M38 37h1M65 37h1M68 37h1M86 37h1M89 37h1M98 37h1M101 37h1M2 38h1M5 38h1M14 38h1M17 38h1M35 38h1M38 38h1M65 38h1M68 38h1M86 38h1M89 38h1M98 38h1M101 38h1M2 39h1M5 39h1M14 39h1M17 39h1M27 39h50M86 39h1M89 39h1M98 39h1M101 39h1M2 40h1M5 40h1M9 40h18M77 40h18M98 40h1M101 40h1M2 41h7M95 41h7M1 42h1M102 42h1M0 43h1M103 43h1M0 44h1M103 44h1M0 45h1M27 45h50M103 45h1M1 46h1M9 46h18M77 46h18M102 46h1M2 47h7M46 47h12M95 47h7M2 48h1M44 48h2M58 48h2M101 48h1M2 49h1M21 49h10M43 49h1M60 49h1M73 49h10M101 49h1M2 50h1M8 50h4M20 50h1M31 50h1M41 50h2M61 50h2M72 50h1M83 50h1M92 50h4M101 50h1M2 51h1M7 51h1M12 51h1M20 51h1M32 51h1M40 51h1M63 51h1M71 51h1M83 51h1M91 51h1M96 51h1M101 51h1M2 52h1M6 52h1M13 52h1M19 52h1M33 52h1M40 52h1M63 52h1M70 52h1M84 52h1M90 52h1M97 52h1M101 52h1M2 53h1M6 53h1M13 53h1M19 53h1M33 53h1M39 53h1M64 53h1M70 53h1M84 53h1M90 53h1M97 53h1M101 53h1M2 54h1M6 54h1M13 54h1M18 54h1M33 54h1M39 54h1M64 54h1M70 54h1M85 54h1M90 54h1M97 54h1M101 54h1M2 55h1M6 55h1M13 55h1M18 55h1M34 55h1M39 55h1M64 55h1M69 55h1M85 55h1M90 55h1M97 55h1M101 55h1M2 56h1M6 56h1M14 56h1M18 56h1M34 56h1M38 56h1M65 56h1M69 56h1M85 56h1M89 56h1M97 56h1M101 56h1M2 57h1M5 57h1M14 57h1M17 57h1M35 57h1M38 57h1M65 57h1M68 57h1M86 57h1M89 57h1M98 57h1M101 57h1M2 58h1M5 58h1M14 58h1M17 58h1M35 58h1M38 58h1M65 58h1M68 58h1M86 58h1M89 58h1M98 58h1M101 58h1M2 59h1M5 59h1M14 59h1M17 59h1M35 59h1M38 59h1M65 59h1M68 59h1M86 59h1M89 59h1M98 59h1M101 59h1M2 60h1M5 60h1M14 60h1M17 60h1M35 60h1M38 60h1M65 60h1M68 60h1M86 60h1M89 60h1M98 60h1M101 60h1M2 61h1M5 61h1M14 61h1M17 61h1M35 61h1M38 61h1M65 61h1M68 61h1M86 61h1M89 61h1M98 61h1M101 61h1M2 62h1M5 62h1M14 62h1M17 62h1M35 62h1M38 62h1M65 62h1M68 62h1M86 62h1M89 62h1M98 62h1M101 62h1M2 63h1M5 63h1M14 63h1M17 63h1M35 63h1M38 63h1M65 63h1M68 63h1M86 63h1M89 63h1M98 63h1M101 63h1M2 64h1M5 64h1M14 64h1M17 64h1M35 64h1M38 64h1M65 64h1M68 64h1M86 64h1M89 64h1M98 64h1M101 64h1M2 65h1M5 65h1M14 65h1M17 65h1M35 65h1M38 65h1M65 65h1M68 65h1M86 65h1M89 65h1M98 65h1M101 65h1M2 66h1M5 66h1M14 66h1M17 66h1M35 66h1M38 66h1M65 66h1M68 66h1M86 66h1M89 66h1M98 66h1M101 66h1M2 67h1M5 67h1M14 67h1M17 67h1M35 67h1M38 67h1M65 67h1M68 67h1M86 67h1M89 67h1M98 67h1M101 67h1M2 68h1M5 68h1M14 68h1M17 68h1M35 68h1M38 68h1M65 68h1M68 68h1M86 68h1M89 68h1M98 68h1M101 68h1M2 69h1M5 69h1M14 69h1M17 69h1M35 69h1M38 69h1M65 69h1M68 69h1M86 69h1M89 69h1M98 69h1M101 69h1M2 70h1M5 70h1M14 70h1M17 70h1M35 70h1M38 70h1M65 70h1M68 70h1M86 70h1M89 70h1M98 70h1M101 70h1M2 71h1M5 71h1M14 71h1M17 71h1M35 71h1M38 71h1M65 71h1M68 71h1M86 71h1M89 71h1M98 71h1M101 71h1M2 72h1M5 72h1M14 72h1M17 72h1M35 72h1M38 72h1M65 72h1M68 72h1M86 72h1M89 72h1M98 72h1M101 72h1M2 73h1M5 73h1M14 73h1M17 73h1M35 73h1M38 73h1M65 73h1M68 73h1M86 73h1M89 73h1M98 73h1M101 73h1M2 74h1M5 74h1M14 74h1M17 74h1M35 74h1M38 74h1M65 74h1M68 74h1M86 74h1M89 74h1M98 74h1M101 74h1M2 75h1M5 75h1M14 75h1M17 75h1M35 75h1M38 75h1M65 75h1M68 75h1M86 75h1M89 75h1M98 75h1M101 75h1M2 76h1M5 76h1M14 76h1M17 76h1M35 76h1M38 76h1M65 76h1M68 76h1M86 76h1M89 76h1M98 76h1M101 76h1M2 77h1M5 77h1M14 77h1M17 77h1M35 77h1M38 77h1M65 77h1M68 77h1M86 77h1M89 77h1M98 77h1M101 77h1M2 78h1M5 78h1M14 78h1M17 78h1M35 78h1M38 78h1M65 78h1M68 78h1M86 78h1M89 78h1M98 78h1M101 78h1M2 79h1M5 79h1M14 79h1M17 79h1M27 79h50M86 79h1M89 79h1M98 79h1M101 79h1M2 80h1M5 80h1M9 80h18M77 80h18M98 80h1M101 80h1M2 81h7M95 81h7M1 82h1M102 82h1M0 83h1M103 83h1M0 84h1M103 84h1M0 85h1M27 85h50M103 85h1M1 86h1M9 86h18M77 86h18M102 86h1M2 87h7M46 87h12M95 87h7M2 88h1M44 88h2M58 88h2M101 88h1M2 89h1M21 89h10M43 89h1M60 89h1M73 89h10M101 89h1M2 90h1M8 90h4M20 90h1M31 90h1M41 90h2M61 90h2M72 90h1M83 90h1M92 90h4M101 90h1M2 91h1M7 91h1M12 91h1M20 91h1M32 91h1M40 91h1M63 91h1M71 91h1M83 91h1M91 91h1M96 91h1M101 91h1M2 92h1M6 92h1M13 92h1M19 92h1M33 92h1M40 92h1M63 92h1M70 92h1M84 92h1M90 92h1M97 92h1M101 92h1M2 93h1M6 93h1M13 93h1M19 93h1M33 93h1M39 93h1M64 93h1M70 93h1M84 93h1M90 93h1M97 93h1M101 93h1M2 94h1M6 94h1M13 94h1M18 94h1M33 94h1M39 94h1M64 94h1M70 94h1M85 94h1M90 94h1M97 94h1M101 94h1M2 95h1M6 95h1M13 95h1M18 95h1M34 95h1M39 95h1M64 95h1M69 95h1M85 95h1M90 95h1M97 95h1M101 95h1M2 96h1M6 96h1M14 96h1M18 96h1M34 96h1M38 96h1M65 96h1M69 96h1M85 96h1M89 96h1M97 96h1M101 96h1M2 97h1M5 97h1M14 97h1M17 97h1M35 97h1M38 97h1M65 97h1M68 97h1M86 97h1M89 97h1M98 97h1M101 97h1M2 98h1M5 98h1M14 98h1M17 98h1M35 98h1M38 98h1M65 98h1M68 98h1M86 98h1M89 98h1M98 98h1M101 98h1M2 99h1M5 99h1M14 99h1M17 99h1M35 99h1M38 99h1M65 99h1M68 99h1M86 99h1M89 99h1M98 99h1M101 99h1M2 100h1M5 100h1M14 100h1M17 100h1M35 100h1M38 100h1M65 100h1M68 100h1M86 100h1M89 100h1M98 100h1M101 100h1M2 101h1M5 101h1M14 101h1M17 101h1M35 101h1M38 101h1M65 101h1M68 101h1M86 101h1M89 101h1M98 101h1M101 101h1M2 102h1M5 102h1M14 102h1M17 102h1M35 102h1M38 102h1M65 102h1M68 102h1M86 102h1M89 102h1M98 102h1M101 102h1M2 103h1M5 103h1M14 103h1M17 103h1M35 103h1M38 103h1M65 103h1M68 103h1M86 103h1M89 103h1M98 103h1M101 103h1M2 104h1M5 104h1M14 104h1M17 104h1M35 104h1M38 104h1M65 104h1M68 104h1M86 104h1M89 104h1M98 104h1M101 104h1M2 105h1M5 105h1M14 105h1M17 105h1M35 105h1M38 105h1M65 105h1M68 105h1M86 105h1M89 105h1M98 105h1M101 105h1M2 106h1M5 106h1M14 106h1M17 106h1M35 106h1M38 106h1M65 106h1M68 106h1M86 106h1M89 106h1M98 106h1M101 106h1M2 107h1M5 107h1M14 107h1M17 107h1M35 107h1M38 107h1M65 107h1M68 107h1M86 107h1M89 107h1M98 107h1M101 107h1M2 108h1M5 108h1M14 108h1M17 108h1M35 108h1M38 108h1M65 108h1M68 108h1M86 108h1M89 108h1M98 108h1M101 108h1M2 109h1M5 109h1M14 109h1M17 109h1M35 109h1M38 109h1M65 109h1M68 109h1M86 109h1M89 109h1M98 109h1M101 109h1M2 110h1M5 110h1M14 110h1M17 110h1M35 110h1M38 110h1M65 110h1M68 110h1M86 110h1M89 110h1M98 110h1M101 110h1M2 111h1M5 111h1M14 111h1M17 111h1M35 111h1M38 111h1M65 111h1M68 111h1M86 111h1M89 111h1M98 111h1M101 111h1M2 112h1M5 112h1M14 112h1M17 112h1M35 112h1M38 112h1M65 112h1M68 112h1M86 112h1M89 112h1M98 112h1M101 112h1M2 113h1M5 113h1M14 113h1M17 113h1M35 113h1M38 113h1M65 113h1M68 113h1M86 113h1M89 113h1M98 113h1M101 113h1M2 114h1M5 114h1M14 114h1M17 114h1M35 114h1M38 114h1M65 114h1M68 114h1M86 114h1M89 114h1M98 114h1M101 114h1M2 115h1M5 115h1M14 115h1M17 115h1M35 115h1M38 115h1M65 115h1M68 115h1M86 115h1M89 115h1M98 115h1M101 115h1M2 116h1M5 116h1M14 116h1M17 116h1M35 116h1M38 116h1M65 116h1M68 116h1M86 116h1M89 116h1M98 116h1M101 116h1M2 117h1M5 117h1M14 117h1M17 117h1M35 117h1M38 117h1M65 117h1M68 117h1M86 117h1M89 117h1M98 117h1M101 117h1M2 118h1M5 118h1M14 118h1M17 118h1M35 118h1M38 118h1M65 118h1M68 118h1M86 118h1M89 118h1M98 118h1M101 118h1M2 119h1M5 119h1M14 119h1M17 119h1M35 119h1M38 119h1M65 119h1M68 119h1M86 119h1M89 119h1M98 119h1M101 119h1M2 120h1M5 120h1M14 120h1M17 120h1M35 120h1M38 120h1M65 120h1M68 120h1M86 120h1M89 120h1M98 120h1M101 120h1M2 121h1M5 121h1M14 121h1M17 121h1M35 121h1M38 121h1M65 121h1M68 121h1M86 121h1M89 121h1M98 121h1M101 121h1M2 122h1M5 122h1M14 122h1M17 122h1M35 122h1M38 122h1M65 122h1M68 122h1M86 122h1M89 122h1M98 122h1M101 122h1" />
<path stroke="#c4baa1" d="M27 1h50M9 2h86M2 3h100M2 4h100M3 5h98M4 6h23M77 6h23M27 7h50M9 8h37M58 8h37M3 9h41M60 9h41M3 10h18M31 10h12M61 10h12M83 10h18M3 11h5M12 11h8M32 11h9M63 11h9M84 11h8M96 11h5M3 12h4M13 12h7M33 12h7M64 12h7M84 12h7M97 12h4M3 13h3M14 13h5M34 13h6M64 13h6M85 13h5M98 13h3M3 14h3M14 14h5M34 14h5M65 14h5M85 14h5M98 14h3M3 15h3M14 15h4M34 15h5M65 15h5M86 15h4M98 15h3M3 16h3M14 16h4M35 16h4M65 16h4M86 16h4M98 16h3M3 17h3M15 17h3M35 17h3M66 17h3M86 17h3M98 17h3M3 18h2M15 18h2M36 18h2M66 18h2M87 18h2M99 18h2M3 19h2M15 19h2M36 19h2M66 19h2M87 19h2M99 19h2M3 20h2M15 20h2M36 20h2M66 20h2M87 20h2M99 20h2M3 21h2M15 21h2M36 21h2M66 21h2M87 21h2M99 21h2M3 22h2M15 22h2M36 22h2M66 22h2M87 22h2M99 22h2M3 23h2M15 23h2M36 23h2M66 23h2M87 23h2M99 23h2M3 24h2M15 24h2M36 24h2M66 24h2M87 24h2M99 24h2M3 25h2M15 25h2M36 25h2M66 25h2M87 25h2M99 25h2M3 26h2M15 26h2M36 26h2M66 26h2M87 26h2M99 26h2M3 27h2M15 27h2M36 27h2M66 27h2M87 27h2M99 27h2M3 28h2M15 28h2M36 28h2M66 28h2M87 28h2M99 28h2M3 29h2M15 29h2M36 29h2M66 29h2M87 29h2M99 29h2M3 30h2M15 30h2M36 30h2M66 30h2M87 30h2M99 30h2M3 31h2M15 31h2M36 31h2M66 31h2M87 31h2M99 31h2M3 32h2M15 32h2M36 32h2M66 32h2M87 32h2M99 32h2M3 33h2M15 33h2M36 33h2M66 33h2M87 33h2M99 33h2M3 34h2M15 34h2M36 34h2M66 34h2M87 34h2M99 34h2M3 35h2M15 35h2M36 35h2M66 35h2M87 35h2M99 35h2M3 36h2M15 36h2M36 36h2M66 36h2M87 36h2M99 36h2M3 37h2M15 37h2M36 37h2M66 37h2M87 37h2M99 37h2M3 38h2M15 38h2M36 38h2M66 38h2M87 38h2M99 38h2M3 39h2M15 39h2M87 39h2M99 39h2M3 40h2M27 40h50M99 40h2M9 41h86M2 42h100M2 43h100M3 44h98M4 45h23M77 45h23M27 46h50M9 47h37M58 47h37M3 48h41M60 48h41M3 49h18M31 49h12M61 49h12M83 49h18M3 50h5M12 50h8M32 50h9M63 50h9M84 50h8M96 50h5M3 51h4M13 51h7M33 51h7M64 51h7M84 51h7M97 51h4M3 52h3M14 52h5M34 52h6M64 52h6M85 52h5M98 52h3M3 53h3M14 53h5M34 53h5M65 53h5M85 53h5M98 53h3M3 54h3M14 54h4M34 54h5M65 54h5M86 54h4M98 54h3M3 55h3M14 55h4M35 55h4M65 55h4M86 55h4M98 55h3M3 56h3M15 56h3M35 56h3M66 56h3M86 56h3M98 56h3M3 57h2M15 57h2M36 57h2M66 57h2M87 57h2M99 57h2M3 58h2M15 58h2M36 58h2M66 58h2M87 58h2M99 58h2M3 59h2M15 59h2M36 59h2M66 59h2M87 59h2M99 59h2M3 60h2M15 60h2M36 60h2M66 60h2M87 60h2M99 60h2M3 61h2M15 61h2M36 61h2M66 61h2M87 61h2M99 61h2M3 62h2M15 62h2M36 62h2M66 62h2M87 62h2M99 62h2M3 63h2M15 63h2M36 63h2M66 63h2M87 63h2M99 63h2M3 64h2M15 64h2M36 64h2M66 64h2M87 64h2M99 64h2M3 65h2M15 65h2M36 65h2M66 65h2M87 65h2M99 65h2M3 66h2M15 66h2M36 66h2M66 66h2M87 66h2M99 66h2M3 67h2M15 67h2M36 67h2M66 67h2M87 67h2M99 67h2M3 68h2M15 68h2M36 68h2M66 68h2M87 68h2M99 68h2M3 69h2M15 69h2M36 69h2M66 69h2M87 69h2M99 69h2M3 70h2M15 70h2M36 70h2M66 70h2M87 70h2M99 70h2M3 71h2M15 71h2M36 71h2M66 71h2M87 71h2M99 71h2M3 72h2M15 72h2M36 72h2M66 72h2M87 72h2M99 72h2M3 73h2M15 73h2M36 73h2M66 73h2M87 73h2M99 73h2M3 74h2M15 74h2M36 74h2M66 74h2M87 74h2M99 74h2M3 75h2M15 75h2M36 75h2M66 75h2M87 75h2M99 75h2M3 76h2M15 76h2M36 76h2M66 76h2M87 76h2M99 76h2M3 77h2M15 77h2M36 77h2M66 77h2M87 77h2M99 77h2M3 78h2M15 78h2M36 78h2M66 78h2M87 78h2M99 78h2M3 79h2M15 79h2M87 79h2M99 79h2M3 80h2M27 80h50M99 80h2M9 81h86M2 82h100M2 83h100M3 84h98M4 85h23M77 85h23M27 86h50M9 87h37M58 87h37M3 88h41M60 88h41M3 89h18M31 89h12M61 89h12M83 89h18M3 90h5M12 90h8M32 90h9M63 90h9M84 90h8M96 90h5M3 91h4M13 91h7M33 91h7M64 91h7M84 91h7M97 91h4M3 92h3M14 92h5M34 92h6M64 92h6M85 92h5M98 92h3M3 93h3M14 93h5M34 93h5M65 93h5M85 93h5M98 93h3M3 94h3M14 94h4M34 94h5M65 94h5M86 94h4M98 94h3M3 95h3M14 95h4M35 95h4M65 95h4M86 95h4M98 95h3M3 96h3M15 96h3M35 96h3M66 96h3M86 96h3M98 96h3M3 97h2M15 97h2M36 97h2M66 97h2M87 97h2M99 97h2M3 98h2M15 98h2M36 98h2M66 98h2M87 98h2M99 98h2M3 99h2M15 99h2M36 99h2M66 99h2M87 99h2M99 99h2M3 100h2M15 100h2M36 100h2M66 100h2M87 100h2M99 100h2M3 101h2M15 101h2M36 101h2M66 101h2M87 101h2M99 101h2M3 102h2M15 102h2M36 102h2M66 102h2M87 102h2M99 102h2M3 103h2M15 103h2M36 103h2M66 103h2M87 103h2M99 103h2M3 104h2M15 104h2M36 104h2M66 104h2M87 104h2M99 104h2M3 105h2M15 105h2M36 105h2M66 105h2M87 105h2M99 105h2M3 106h2M15 106h2M36 106h2M66 106h2M87 106h2M99 106h2M3 107h2M15 107h2M36 107h2M66 107h2M87 107h2M99 107h2M3 108h2M15 108h2M36 108h2M66 108h2M87 108h2M99 108h2M3 109h2M15 109h2M36 109h2M66 109h2M87 109h2M99 109h2M3 110h2M15 110h2M36 110h2M66 110h2M87 110h2M99 110h2M3 111h2M15 111h2M36 111h2M66 111h2M87 111h2M99 111h2M3 112h2M15 112h2M36 112h2M66 112h2M87 112h2M99 112h2M3 113h2M15 113h2M36 113h2M66 113h2M87 113h2M99 113h2M3 114h2M15 114h2M36 114h2M66 114h2M87 114h2M99 114h2M3 115h2M15 115h2M36 115h2M66 115h2M87 115h2M99 115h2M3 116h2M15 116h2M36 116h2M66 116h2M87 116h2M99 116h2M3 117h2M15 117h2M36 117h2M66 117h2M87 117h2M99 117h2M3 118h2M15 118h2M36 118h2M66 118h2M87 118h2M99 118h2M3 119h2M15 119h2M36 119h2M66 119h2M87 119h2M99 119h2M3 120h2M15 120h2M36 120h2M66 120h2M87 120h2M99 120h2M3 121h2M15 121h2M36 121h2M66 121h2M87 121h2M99 121h2M3 122h2M15 122h2M36 122h2M66 122h2M87 122h2M99 122h2" />
<path stroke="#a8a190" d="M1 4h1M102 4h1M1 5h2M101 5h2M1 6h3M100 6h3M2 7h7M95 7h7M46 9h12M44 10h2M58 10h2M21 11h10M43 11h1M60 11h1M73 11h10M8 12h4M21 12h1M41 12h2M61 12h2M82 12h1M92 12h4M7 13h2M20 13h1M83 13h1M95 13h2M7 14h2M20 14h1M83 14h1M95 14h2M7 15h2M19 15h1M84 15h1M95 15h2M7 16h2M19 16h1M84 16h1M95 16h2M7 17h2M19 17h1M84 17h1M95 17h2M6 18h2M18 18h1M85 18h1M96 18h2M6 19h2M18 19h1M85 19h1M96 19h2M6 20h2M18 20h1M85 20h1M96 20h2M6 21h2M18 21h1M85 21h1M96 21h2M6 22h2M18 22h1M85 22h1M96 22h2M6 23h2M18 23h1M85 23h1M96 23h2M6 24h2M18 24h1M85 24h1M96 24h2M6 25h2M18 25h1M85 25h1M96 25h2M6 26h2M18 26h1M85 26h1M96 26h2M6 27h2M18 27h1M85 27h1M96 27h2M6 28h2M18 28h1M85 28h1M96 28h2M6 29h2M18 29h1M85 29h1M96 29h2M6 30h2M18 30h1M85 30h1M96 30h2M6 31h2M18 31h1M85 31h1M96 31h2M6 32h2M18 32h1M85 32h1M96 32h2M6 33h2M18 33h1M85 33h1M96 33h2M6 34h2M18 34h1M85 34h1M96 34h2M6 35h2M18 35h1M85 35h1M96 35h2M6 36h2M18 36h1M85 36h1M96 36h2M6 37h2M18 37h1M85 37h1M96 37h2M6 38h2M18 38h1M85 38h1M96 38h2M6 39h2M18 39h1M85 39h1M96 39h2M6 40h2M96 40h2M1 43h1M102 43h1M1 44h2M101 44h2M1 45h3M100 45h3M2 46h7M95 46h7M46 48h12M44 49h2M58 49h2M21 50h10M43 50h1M60 50h1M73 50h10M8 51h4M21 51h1M41 51h2M61 51h2M82 51h1M92 51h4M7 52h2M20 52h1M83 52h1M95 52h2M7 53h2M20 53h1M83 53h1M95 53h2M7 54h2M19 54h1M84 54h1M95 54h2M7 55h2M19 55h1M84 55h1M95 55h2M7 56h2M19 56h1M84 56h1M95 56h2M6 57h2M18 57h1M85 57h1M96 57h2M6 58h2M18 58h1M85 58h1M96 58h2M6 59h2M18 59h1M85 59h1M96 59h2M6 60h2M18 60h1M85 60h1M96 60h2M6 61h2M18 61h1M85 61h1M96 61h2M6 62h2M18 62h1M85 62h1M96 62h2M6 63h2M18 63h1M85 63h1M96 63h2M6 64h2M18 64h1M85 64h1M96 64h2M6 65h2M18 65h1M85 65h1M96 65h2M6 66h2M18 66h1M85 66h1M96 66h2M6 67h2M18 67h1M85 67h1M96 67h2M6 68h2M18 68h1M85 68h1M96 68h2M6 69h2M18 69h1M85 69h1M96 69h2M6 70h2M18 70h1M85 70h1M96 70h2M6 71h2M18 71h1M85 71h1M96 71h2M6 72h2M18 72h1M85 72h1M96 72h2M6 73h2M18 73h1M85 73h1M96 73h2M6 74h2M18 74h1M85 74h1M96 74h2M6 75h2M18 75h1M85 75h1M96 75h2M6 76h2M18 76h1M85 76h1M96 76h2M6 77h2M18 77h1M85 77h1M96 77h2M6 78h2M18 78h1M85 78h1M96 78h2M6 79h2M18 79h1M85 79h1M96 79h2M6 80h2M96 80h2M1 83h1M102 83h1M1 84h2M101 84h2M1 85h3M100 85h3M2 86h7M95 86h7M46 88h12M44 89h2M58 89h2M21 90h10M43 90h1M60 90h1M73 90h10M8 91h4M21 91h1M41 91h2M61 91h2M82 91h1M92 91h4M7 92h2M20 92h1M83 92h1M95 92h2M7 93h2M20 93h1M83 93h1M95 93h2M7 94h2M19 94h1M84 94h1M95 94h2M7 95h2M19 95h1M84 95h1M95 95h2M7 96h2M19 96h1M84 96h1M95 96h2M6 97h2M18 97h1M85 97h1M96 97h2M6 98h2M18 98h1M85 98h1M96 98h2M6 99h2M18 99h1M85 99h1M96 99h2M6 100h2M18 100h1M85 100h1M96 100h2M6 101h2M18 101h1M85 101h1M96 101h2M6 102h2M18 102h1M85 102h1M96 102h2M6 103h2M18 103h1M85 103h1M96 103h2M6 104h2M18 104h1M85 104h1M96 104h2M6 105h2M18 105h1M85 105h1M96 105h2M6 106h2M18 106h1M85 106h1M96 106h2M6 107h2M18 107h1M85 107h1M96 107h2M6 108h2M18 108h1M85 108h1M96 108h2M6 109h2M18 109h1M85 109h1M96 109h2M6 110h2M18 110h1M85 110h1M96 110h2M6 111h2M18 111h1M85 111h1M96 111h2M6 112h2M18 112h1M85 112h1M96 112h2M6 113h2M18 113h1M85 113h1M96 113h2M6 114h2M18 114h1M85 114h1M96 114h2M6 115h2M18 115h1M85 115h1M96 115h2M6 116h2M18 116h1M85 116h1M96 116h2M6 117h2M18 117h1M85 117h1M96 117h2M6 118h2M18 118h1M85 118h1M96 118h2M6 119h2M18 119h1M85 119h1M96 119h2M6 120h2M18 120h1M85 120h1M96 120h2M6 121h2M18 121h1M85 121h1M96 121h2M6 122h2M18 122h1M85 122h1M96 122h2" />
<path stroke="#74716b" d="M46 10h12M44 11h16M22 12h10M43 12h18M72 12h10M9 13h4M21 13h12M41 13h22M71 13h12M91 13h4M9 14h4M21 14h12M40 14h24M71 14h12M91 14h4M9 15h4M20 15h13M40 15h24M71 15h13M91 15h4M9 16h4M20 16h14M40 16h24M70 16h14M91 16h4M9 17h5M20 17h14M39 17h26M70 17h14M90 17h5M8 18h6M19 18h16M39 18h26M69 18h16M90 18h6M8 19h6M19 19h16M39 19h26M69 19h16M90 19h6M8 20h6M19 20h16M39 20h26M69 20h16M90 20h6M8 21h6M19 21h16M39 21h26M69 21h16M90 21h6M8 22h6M19 22h16M39 22h26M69 22h16M90 22h6M8 23h6M19 23h16M39 23h26M69 23h16M90 23h6M8 24h6M19 24h16M39 24h26M69 24h16M90 24h6M8 25h6M19 25h16M39 25h26M69 25h16M90 25h6M8 26h6M19 26h16M39 26h26M69 26h16M90 26h6M8 27h6M19 27h16M39 27h26M69 27h16M90 27h6M8 28h6M19 28h16M39 28h26M69 28h16M90 28h6M8 29h6M19 29h16M39 29h26M69 29h16M90 29h6M8 30h6M19 30h16M39 30h26M69 30h16M90 30h6M8 31h6M19 31h16M39 31h26M69 31h16M90 31h6M8 32h6M19 32h16M39 32h26M69 32h16M90 32h6M8 33h6M19 33h16M39 33h26M69 33h16M90 33h6M8 34h6M19 34h16M39 34h26M69 34h16M90 34h6M8 35h6M19 35h16M39 35h26M69 35h16M90 35h6M8 36h6M19 36h16M39 36h26M69 36h16M90 36h6M8 37h6M19 37h16M39 37h26M69 37h16M90 37h6M8 38h6M19 38h16M39 38h26M69 38h16M90 38h6M8 39h6M19 39h8M77 39h8M90 39h6M8 40h1M95 40h1M46 49h12M44 50h16M22 51h10M43 51h18M72 51h10M9 52h4M21 52h12M41 52h22M71 52h12M91 52h4M9 53h4M21 53h12M40 53h24M71 53h12M91 53h4M9 54h4M20 54h13M40 54h24M71 54h13M91 54h4M9 55h4M20 55h14M40 55h24M70 55h14M91 55h4M9 56h5M20 56h14M39 56h26M70 56h14M90 56h5M8 57h6M19 57h16M39 57h26M69 57h16M90 57h6M8 58h6M19 58h16M39 58h26M69 58h16M90 58h6M8 59h6M19 59h16M39 59h26M69 59h16M90 59h6M8 60h6M19 60h16M39 60h26M69 60h16M90 60h6M8 61h6M19 61h16M39 61h26M69 61h16M90 61h6M8 62h6M19 62h16M39 62h26M69 62h16M90 62h6M8 63h6M19 63h16M39 63h26M69 63h16M90 63h6M8 64h6M19 64h16M39 64h26M69 64h16M90 64h6M8 65h6M19 65h16M39 65h26M69 65h16M90 65h6M8 66h6M19 66h16M39 66h26M69 66h16M90 66h6M8 67h6M19 67h16M39 67h26M69 67h16M90 67h6M8 68h6M19 68h16M39 68h26M69 68h16M90 68h6M8 69h6M19 69h16M39 69h26M69 69h16M90 69h6M8 70h6M19 70h16M39 70h26M69 70h16M90 70h6M8 71h6M19 71h16M39 71h26M69 71h16M90 71h6M8 72h6M19 72h16M39 72h26M69 72h16M90 72h6M8 73h6M19 73h16M39 73h26M69 73h16M90 73h6M8 74h6M19 74h16M39 74h26M69 74h16M90 74h6M8 75h6M19 75h16M39 75h26M69 75h16M90 75h6M8 76h6M19 76h16M39 76h26M69 76h16M90 76h6M8 77h6M19 77h16M39 77h26M69 77h16M90 77h6M8 78h6M19 78h16M39 78h26M69 78h16M90 78h6M8 79h6M19 79h8M77 79h8M90 79h6M8 80h1M95 80h1M46 89h12M44 90h16M22 91h10M43 91h18M72 91h10M9 92h4M21 92h12M41 92h22M71 92h12M91 92h4M9 93h4M21 93h12M40 93h24M71 93h12M91 93h4M9 94h4M20 94h13M40 94h24M71 94h13M91 94h4M9 95h4M20 95h14M40 95h24M70 95h14M91 95h4M9 96h5M20 96h14M39 96h26M70 96h14M90 96h5M8 97h6M19 97h16M39 97h26M69 97h16M90 97h6M8 98h6M19 98h16M39 98h26M69 98h16M90 98h6M8 99h6M19 99h16M39 99h26M69 99h16M90 99h6M8 100h6M19 100h16M39 100h26M69 100h16M90 100h6M8 101h6M19 101h16M39 101h26M69 101h16M90 101h6M8 102h6M19 102h16M39 102h26M69 102h16M90 102h6M8 103h6M19 103h16M39 103h26M69 103h16M90 103h6M8 104h6M19 104h16M39 104h26M69 104h16M90 104h6M8 105h6M19 105h16M39 105h26M69 105h16M90 105h6M8 106h6M19 106h16M39 106h26M69 106h16M90 106h6M8 107h6M19 107h16M39 107h26M69 107h16M90 107h6M8 108h6M19 108h16M39 108h26M69 108h16M90 108h6M8 109h6M19 109h16M39 109h26M69 109h16M90 109h6M8 110h6M19 110h16M39 110h26M69 110h16M90 110h6M8 111h6M19 111h16M39 111h26M69 111h16M90 111h6M8 112h6M19 112h16M39 112h26M69 112h16M90 112h6M8 113h6M19 113h16M39 113h26M69 113h16M90 113h6M8 114h6M19 114h16M39 114h26M69 114h16M90 114h6M8 115h6M19 115h16M39 115h26M69 115h16M90 115h6M8 116h6M19 116h16M39 116h26M69 116h16M90 116h6M8 117h6M19 117h16M39 117h26M69 117h16M90 117h6M8 118h6M19 118h16M39 118h26M69 118h16M90 118h6M8 119h6M19 119h16M39 119h26M69 119h16M90 119h6M8 120h6M19 120h16M39 120h26M69 120h16M90 120h6M8 121h6M19 121h16M39 121h26M69 121h16M90 121h6M8 122h6M19 122h16M39 122h26M69 122h16M90 122h6" />
</svg>