<svg xmlns="http://www.w3.org/2000/svg" viewBox="0 -0.5 107 74" shape-rendering="crispEdges">
<metadata>Made with Pixels to Svg https://codepen.io/shshaw/pen/XbxvNj</metadata>
<path stroke="#000000" d="M1 0h105M0 1h1M106 1h1M0 2h1M106 2h1M0 3h1M106 3h1M0 4h1M106 4h1M0 5h1M106 5h1M0 6h1M106 6h1M0 7h1M106 7h1M0 8h1M106 8h1M0 9h1M106 9h1M0 10h1M106 10h1M0 11h1M106 11h1M0 12h1M106 12h1M0 13h1M106 13h1M0 14h1M106 14h1M0 15h1M106 15h1M0 16h1M106 16h1M0 17h1M7 17h1M14 17h1M21 17h1M28 17h1M35 17h1M42 17h1M49 17h1M57 17h1M64 17h1M71 17h1M78 17h1M85 17h1M92 17h1M99 17h1M106 17h1M1 18h6M8 18h6M15 18h6M22 18h6M29 18h6M36 18h6M43 18h6M50 18h7M58 18h6M65 18h6M72 18h6M79 18h6M86 18h6M93 18h6M100 18h6M2 19h1M8 19h1M98 19h1M104 19h1M2 20h1M8 20h1M98 20h1M104 20h1M2 21h1M8 21h1M98 21h1M104 21h1M2 22h1M8 22h1M98 22h1M104 22h1M2 23h1M8 23h1M98 23h1M104 23h1M2 24h1M8 24h1M98 24h1M104 24h1M2 25h1M8 25h1M98 25h1M104 25h1M2 26h1M8 26h1M98 26h1M104 26h1M2 27h1M8 27h1M98 27h1M104 27h1M2 28h1M8 28h1M98 28h1M104 28h1M2 29h1M8 29h1M98 29h1M104 29h1M2 30h1M8 30h1M98 30h1M104 30h1M2 31h1M8 31h1M98 31h1M104 31h1M2 32h1M8 32h1M98 32h1M104 32h1M2 33h1M8 33h1M98 33h1M104 33h1M2 34h1M8 34h1M23 34h22M51 34h42M98 34h1M104 34h1M2 35h1M8 35h1M22 35h1M45 35h1M50 35h1M93 35h1M98 35h1M104 35h1M2 36h1M8 36h1M22 36h1M24 36h20M45 36h1M50 36h1M52 36h40M93 36h1M98 36h1M104 36h1M2 37h1M8 37h1M22 37h1M24 37h1M43 37h1M45 37h1M50 37h1M52 37h1M91 37h1M93 37h1M98 37h1M104 37h1M2 38h1M8 38h1M22 38h1M24 38h1M43 38h1M45 38h1M50 38h1M52 38h1M91 38h1M93 38h1M98 38h1M104 38h1M2 39h1M8 39h1M22 39h1M24 39h1M43 39h1M45 39h1M50 39h1M52 39h1M91 39h1M93 39h1M98 39h1M104 39h1M2 40h1M8 40h1M22 40h1M24 40h1M43 40h1M45 40h1M50 40h1M52 40h1M91 40h1M93 40h1M98 40h1M104 40h1M2 41h1M8 41h1M22 41h1M24 41h1M43 41h1M45 41h1M50 41h1M52 41h1M91 41h1M93 41h1M98 41h1M104 41h1M2 42h1M8 42h1M22 42h1M24 42h1M43 42h1M45 42h1M50 42h1M52 42h1M91 42h1M93 42h1M98 42h1M104 42h1M2 43h1M8 43h1M22 43h1M24 43h1M43 43h1M45 43h1M50 43h1M52 43h1M91 43h1M93 43h1M98 43h1M104 43h1M2 44h1M8 44h1M22 44h1M24 44h1M43 44h1M45 44h1M50 44h1M52 44h1M91 44h1M93 44h1M98 44h1M104 44h1M2 45h1M8 45h1M22 45h1M24 45h1M43 45h1M45 45h1M50 45h1M52 45h1M91 45h1M93 45h1M98 45h1M104 45h1M2 46h1M8 46h1M22 46h1M24 46h1M43 46h1M45 46h1M50 46h1M52 46h1M91 46h1M93 46h1M98 46h1M104 46h1M2 47h1M8 47h1M22 47h1M24 47h1M43 47h1M45 47h1M50 47h1M52 47h1M91 47h1M93 47h1M98 47h1M104 47h1M2 48h1M8 48h1M22 48h1M24 48h1M43 48h1M45 48h1M50 48h1M52 48h1M91 48h1M93 48h1M98 48h1M104 48h1M2 49h1M8 49h1M22 49h1M24 49h1M43 49h1M45 49h1M50 49h1M52 49h1M91 49h1M93 49h1M98 49h1M104 49h1M2 50h1M8 50h1M22 50h1M24 50h1M43 50h1M45 50h1M50 50h1M52 50h1M91 50h1M93 50h1M98 50h1M104 50h1M2 51h1M8 51h1M22 51h1M24 51h1M43 51h1M45 51h1M50 51h1M52 51h1M91 51h1M93 51h1M98 51h1M104 51h1M2 52h1M8 52h1M22 52h1M24 52h1M43 52h1M45 52h1M50 52h1M52 52h1M91 52h1M93 52h1M98 52h1M104 52h1M2 53h1M8 53h1M22 53h1M24 53h1M39 53h2M43 53h1M45 53h1M50 53h1M52 53h1M91 53h1M93 53h1M98 53h1M104 53h1M2 54h1M8 54h1M22 54h1M24 54h1M38 54h1M41 54h1M43 54h1M45 54h1M50 54h1M52 54h1M91 54h1M93 54h1M98 54h1M104 54h1M2 55h1M8 55h1M22 55h1M24 55h1M38 55h1M41 55h1M43 55h1M45 55h1M50 55h44M98 55h1M104 55h1M2 56h1M8 56h1M22 56h1M24 56h1M38 56h1M41 56h1M43 56h1M45 56h1M49 56h1M94 56h1M98 56h1M104 56h1M2 57h1M8 57h1M22 57h1M24 57h1M39 57h2M43 57h1M45 57h1M49 57h1M94 57h1M98 57h1M104 57h1M2 58h1M8 58h1M22 58h1M24 58h1M43 58h1M45 58h1M49 58h46M98 58h1M104 58h1M2 59h1M8 59h1M22 59h1M24 59h1M43 59h1M45 59h1M98 59h1M104 59h1M2 60h1M8 60h1M22 60h1M24 60h1M43 60h1M45 60h1M98 60h1M104 60h1M2 61h1M8 61h1M22 61h1M24 61h1M43 61h1M45 61h1M98 61h1M104 61h1M2 62h1M8 62h15M24 62h1M43 62h1M45 62h54M104 62h1M2 63h1M8 63h1M22 63h1M24 63h1M43 63h1M45 63h1M98 63h1M104 63h1M2 64h1M8 64h1M22 64h1M24 64h1M43 64h1M45 64h1M98 64h1M104 64h1M2 65h1M8 65h1M22 65h1M24 65h1M43 65h1M45 65h1M98 65h1M104 65h1M2 66h1M8 66h1M22 66h1M24 66h1M43 66h1M45 66h1M98 66h1M104 66h1M2 67h1M8 67h1M22 67h1M24 67h1M43 67h1M45 67h1M98 67h1M104 67h1M2 68h1M8 68h1M22 68h1M24 68h1M43 68h1M45 68h1M98 68h1M104 68h1M2 69h1M8 69h1M22 69h1M24 69h1M43 69h1M45 69h1M98 69h1M104 69h1M2 70h1M8 70h1M22 70h1M24 70h1M43 70h1M45 70h1M98 70h1M104 70h1M2 71h1M8 71h1M22 71h1M24 71h1M43 71h1M45 71h1M98 71h1M104 71h1M2 72h1M8 72h1M22 72h1M24 72h1M43 72h1M45 72h1M98 72h1M104 72h1M2 73h1M8 73h1M22 73h1M24 73h1M43 73h1M45 73h1M98 73h1M104 73h1" />
<path stroke="#bd7f4e" d="M1 1h6M8 1h6M15 1h6M22 1h6M29 1h6M36 1h6M43 1h6M50 1h7M58 1h6M65 1h6M72 1h6M79 1h6M86 1h6M93 1h6M100 1h6M1 2h6M8 2h6M15 2h6M22 2h6M29 2h6M36 2h6M43 2h6M50 2h7M58 2h6M65 2h6M72 2h6M79 2h6M86 2h6M93 2h6M100 2h6M1 3h6M8 3h6M15 3h6M22 3h6M29 3h6M36 3h6M43 3h6M50 3h7M58 3h6M65 3h6M72 3h6M79 3h6M86 3h6M93 3h6M100 3h6M1 4h6M8 4h6M15 4h6M22 4h6M29 4h6M36 4h6M43 4h6M50 4h7M58 4h6M65 4h6M72 4h6M79 4h6M86 4h6M93 4h6M100 4h6M1 5h5M8 5h5M15 5h5M22 5h5M29 5h5M36 5h5M43 5h5M50 5h6M58 5h5M65 5h5M72 5h5M79 5h5M86 5h5M93 5h5M100 5h5M1 6h5M8 6h5M15 6h5M22 6h5M29 6h5M36 6h5M43 6h5M50 6h6M58 6h5M65 6h5M72 6h5M79 6h5M86 6h5M93 6h5M100 6h5M1 7h5M8 7h5M15 7h5M22 7h5M29 7h5M36 7h5M43 7h5M50 7h6M58 7h5M65 7h5M72 7h5M79 7h5M86 7h5M93 7h5M100 7h5M1 8h5M8 8h5M15 8h5M22 8h5M29 8h5M36 8h5M43 8h5M50 8h6M58 8h5M65 8h5M72 8h5M79 8h5M86 8h5M93 8h5M100 8h5M1 9h5M8 9h5M15 9h5M22 9h5M29 9h5M36 9h5M43 9h5M50 9h6M58 9h5M65 9h5M72 9h5M79 9h5M86 9h5M93 9h5M100 9h5M1 10h5M8 10h5M15 10h5M22 10h5M29 10h5M36 10h5M43 10h5M50 10h6M58 10h5M65 10h5M72 10h5M79 10h5M86 10h5M93 10h5M100 10h5M1 11h5M8 11h5M15 11h5M22 11h5M29 11h5M36 11h5M43 11h5M50 11h6M58 11h5M65 11h5M72 11h5M79 11h5M86 11h5M93 11h5M100 11h5M1 12h4M8 12h4M15 12h4M22 12h4M29 12h4M36 12h4M43 12h4M50 12h5M58 12h4M65 12h4M72 12h4M79 12h4M86 12h4M93 12h4M100 12h4M1 13h4M8 13h4M15 13h4M22 13h4M29 13h4M36 13h4M43 13h4M50 13h5M58 13h4M65 13h4M72 13h4M79 13h4M86 13h4M93 13h4M100 13h4M1 14h4M8 14h4M15 14h4M22 14h4M29 14h4M36 14h4M43 14h4M50 14h5M58 14h4M65 14h4M72 14h4M79 14h4M86 14h4M93 14h4M100 14h4M1 15h4M8 15h4M15 15h4M22 15h4M29 15h4M36 15h4M43 15h4M50 15h5M58 15h4M65 15h4M72 15h4M79 15h4M86 15h4M93 15h4M100 15h4M1 16h4M8 16h4M15 16h4M22 16h4M29 16h4M36 16h4M43 16h4M50 16h5M58 16h4M65 16h4M72 16h4M79 16h4M86 16h4M93 16h4M100 16h4M1 17h4M8 17h4M15 17h4M22 17h4M29 17h4M36 17h4M43 17h4M50 17h5M58 17h4M65 17h4M72 17h4M79 17h4M86 17h4M93 17h4M100 17h4M99 18h1M3 19h2M99 19h2M3 20h2M99 20h2M3 21h2M99 21h2M3 22h2M99 22h2M3 23h2M99 23h2M3 24h2M99 24h2M3 25h2M99 25h2M3 26h2M99 26h2M3 27h2M99 27h2M3 28h2M99 28h2M3 29h2M99 29h2M3 30h2M99 30h2M3 31h2M99 31h2M3 32h2M99 32h2M3 33h2M99 33h2M3 34h2M99 34h2M3 35h2M23 35h22M51 35h42M99 35h2M3 36h2M23 36h1M44 36h1M51 36h1M92 36h1M99 36h2M3 37h1M23 37h1M25 37h18M44 37h1M51 37h1M92 37h1M99 37h1M3 38h1M23 38h1M25 38h18M44 38h1M51 38h1M92 38h1M99 38h1M3 39h1M23 39h1M25 39h18M44 39h1M51 39h1M92 39h1M99 39h1M3 40h1M23 40h1M25 40h18M44 40h1M51 40h1M92 40h1M99 40h1M3 41h1M23 41h1M25 41h18M44 41h1M51 41h1M92 41h1M99 41h1M3 42h1M23 42h1M25 42h18M44 42h1M51 42h1M92 42h1M99 42h1M3 43h1M23 43h1M25 43h18M44 43h1M51 43h1M92 43h1M99 43h1M3 44h1M23 44h1M25 44h18M44 44h1M51 44h1M92 44h1M99 44h1M3 45h1M23 45h1M25 45h18M44 45h1M51 45h1M92 45h1M99 45h1M3 46h1M23 46h1M25 46h18M44 46h1M51 46h1M92 46h1M99 46h1M3 47h1M23 47h1M25 47h18M44 47h1M51 47h1M92 47h1M99 47h1M3 48h1M23 48h1M25 48h18M44 48h1M51 48h1M92 48h1M99 48h1M3 49h1M23 49h1M25 49h18M44 49h1M51 49h1M92 49h1M99 49h1M3 50h1M23 50h1M25 50h18M44 50h1M51 50h1M92 50h1M99 50h1M3 51h1M23 51h1M25 51h18M44 51h1M51 51h1M92 51h1M99 51h1M3 52h1M23 52h1M25 52h18M44 52h1M51 52h1M92 52h1M99 52h1M3 53h1M23 53h1M25 53h14M41 53h2M44 53h1M51 53h1M92 53h1M99 53h1M3 54h1M23 54h1M25 54h13M42 54h1M44 54h1M51 54h1M92 54h1M99 54h1M3 55h1M23 55h1M25 55h13M42 55h1M44 55h1M99 55h1M3 56h1M23 56h1M25 56h13M42 56h1M44 56h1M50 56h44M99 56h1M3 57h1M23 57h1M25 57h14M41 57h2M44 57h1M99 57h1M3 58h2M23 58h1M25 58h18M44 58h1M99 58h2M3 59h2M23 59h1M25 59h18M44 59h1M99 59h2M3 60h2M23 60h1M25 60h18M44 60h1M99 60h2M3 61h2M23 61h1M25 61h18M44 61h1M99 61h2M3 62h2M23 62h1M25 62h1M42 62h1M44 62h1M99 62h2M3 63h2M23 63h1M25 63h1M27 63h14M42 63h1M44 63h1M99 63h2M3 64h2M23 64h1M25 64h1M27 64h14M42 64h1M44 64h1M99 64h2M3 65h2M23 65h1M25 65h1M27 65h14M42 65h1M44 65h1M99 65h2M3 66h2M23 66h1M25 66h1M27 66h14M42 66h1M44 66h1M99 66h2M3 67h2M23 67h1M25 67h1M27 67h14M42 67h1M44 67h1M99 67h2M3 68h2M23 68h1M25 68h1M27 68h14M42 68h1M44 68h1M99 68h2M3 69h2M23 69h1M25 69h1M27 69h14M42 69h1M44 69h1M99 69h2M3 70h2M23 70h1M25 70h1M27 70h14M42 70h1M44 70h1M99 70h2M3 71h2M23 71h1M25 71h1M27 71h14M42 71h1M44 71h1M99 71h2M3 72h2M23 72h1M25 72h1M42 72h1M44 72h1M99 72h2M3 73h2M23 73h1M25 73h18M44 73h1M99 73h2" />
<path stroke="#9c5841" d="M7 1h1M14 1h1M21 1h1M28 1h1M35 1h1M42 1h1M49 1h1M57 1h1M64 1h1M71 1h1M78 1h1M85 1h1M92 1h1M99 1h1M7 2h1M14 2h1M21 2h1M28 2h1M35 2h1M42 2h1M49 2h1M57 2h1M64 2h1M71 2h1M78 2h1M85 2h1M92 2h1M99 2h1M7 3h1M14 3h1M21 3h1M28 3h1M35 3h1M42 3h1M49 3h1M57 3h1M64 3h1M71 3h1M78 3h1M85 3h1M92 3h1M99 3h1M7 4h1M14 4h1M21 4h1M28 4h1M35 4h1M42 4h1M49 4h1M57 4h1M64 4h1M71 4h1M78 4h1M85 4h1M92 4h1M99 4h1M6 5h2M13 5h2M20 5h2M27 5h2M34 5h2M41 5h2M48 5h2M56 5h2M63 5h2M70 5h2M77 5h2M84 5h2M91 5h2M98 5h2M105 5h1M6 6h2M13 6h2M20 6h2M27 6h2M34 6h2M41 6h2M48 6h2M56 6h2M63 6h2M70 6h2M77 6h2M84 6h2M91 6h2M98 6h2M105 6h1M6 7h2M13 7h2M20 7h2M27 7h2M34 7h2M41 7h2M48 7h2M56 7h2M63 7h2M70 7h2M77 7h2M84 7h2M91 7h2M98 7h2M105 7h1M6 8h2M13 8h2M20 8h2M27 8h2M34 8h2M41 8h2M48 8h2M56 8h2M63 8h2M70 8h2M77 8h2M84 8h2M91 8h2M98 8h2M105 8h1M6 9h2M13 9h2M20 9h2M27 9h2M34 9h2M41 9h2M48 9h2M56 9h2M63 9h2M70 9h2M77 9h2M84 9h2M91 9h2M98 9h2M105 9h1M6 10h2M13 10h2M20 10h2M27 10h2M34 10h2M41 10h2M48 10h2M56 10h2M63 10h2M70 10h2M77 10h2M84 10h2M91 10h2M98 10h2M105 10h1M6 11h2M13 11h2M20 11h2M27 11h2M34 11h2M41 11h2M48 11h2M56 11h2M63 11h2M70 11h2M77 11h2M84 11h2M91 11h2M98 11h2M105 11h1M5 12h3M12 12h3M19 12h3M26 12h3M33 12h3M40 12h3M47 12h3M55 12h3M62 12h3M69 12h3M76 12h3M83 12h3M90 12h3M97 12h3M104 12h2M5 13h3M12 13h3M19 13h3M26 13h3M33 13h3M40 13h3M47 13h3M55 13h3M62 13h3M69 13h3M76 13h3M83 13h3M90 13h3M97 13h3M104 13h2M5 14h3M12 14h3M19 14h3M26 14h3M33 14h3M40 14h3M47 14h3M55 14h3M62 14h3M69 14h3M76 14h3M83 14h3M90 14h3M97 14h3M104 14h2M5 15h3M12 15h3M19 15h3M26 15h3M33 15h3M40 15h3M47 15h3M55 15h3M62 15h3M69 15h3M76 15h3M83 15h3M90 15h3M97 15h3M104 15h2M5 16h3M12 16h3M19 16h3M26 16h3M33 16h3M40 16h3M47 16h3M55 16h3M62 16h3M69 16h3M76 16h3M83 16h3M90 16h3M97 16h3M104 16h2M5 17h2M12 17h2M19 17h2M26 17h2M33 17h2M40 17h2M47 17h2M55 17h2M62 17h2M69 17h2M76 17h2M83 17h2M90 17h2M97 17h2M104 17h2M7 18h1M5 19h3M101 19h3M5 20h3M101 20h3M5 21h3M101 21h3M5 22h3M101 22h3M5 23h3M101 23h3M5 24h3M101 24h3M5 25h3M101 25h3M5 26h3M101 26h3M5 27h3M101 27h3M5 28h3M101 28h3M5 29h3M101 29h3M5 30h3M101 30h3M5 31h3M101 31h3M5 32h3M101 32h3M5 33h3M101 33h3M5 34h3M101 34h3M5 35h3M101 35h3M5 36h3M101 36h3M4 37h4M100 37h4M4 38h4M100 38h4M4 39h4M100 39h4M4 40h4M100 40h4M4 41h4M100 41h4M4 42h4M100 42h4M4 43h4M100 43h4M4 44h4M100 44h4M4 45h4M100 45h4M4 46h4M100 46h4M4 47h4M100 47h4M4 48h4M100 48h4M4 49h4M100 49h4M4 50h4M100 50h4M4 51h4M100 51h4M4 52h4M100 52h4M4 53h4M100 53h4M4 54h4M100 54h4M4 55h4M100 55h4M4 56h4M100 56h4M4 57h4M50 57h44M100 57h4M5 58h3M101 58h3M5 59h3M101 59h3M5 60h3M101 60h3M5 61h3M101 61h3M5 62h3M26 62h16M101 62h3M5 63h3M26 63h1M41 63h1M101 63h3M5 64h3M26 64h1M41 64h1M101 64h3M5 65h3M26 65h1M41 65h1M101 65h3M5 66h3M26 66h1M41 66h1M101 66h3M5 67h3M26 67h1M41 67h1M101 67h3M5 68h3M26 68h1M41 68h1M101 68h3M5 69h3M26 69h1M41 69h1M101 69h3M5 70h3M26 70h1M41 70h1M101 70h3M5 71h3M26 71h1M41 71h1M101 71h3M5 72h3M26 72h16M101 72h3M5 73h3M101 73h3" />
<path stroke="#e2bd90" d="M14 18h1M21 18h1M28 18h1M35 18h1M42 18h1M49 18h1M57 18h1M64 18h1M71 18h1M78 18h1M85 18h1M92 18h1M10 19h88M10 20h88M10 21h88M10 22h88M10 23h88M10 24h88M10 25h88M10 26h88M10 27h88M10 28h88M10 29h88M10 30h88M10 31h88M10 32h88M10 33h88M10 34h13M45 34h6M93 34h5M10 35h12M46 35h4M94 35h4M10 36h12M46 36h4M94 36h4M10 37h12M46 37h4M94 37h4M10 38h12M46 38h4M94 38h4M10 39h12M46 39h4M94 39h4M10 40h12M46 40h4M94 40h4M10 41h12M46 41h4M94 41h4M10 42h12M46 42h4M94 42h4M10 43h12M46 43h4M94 43h4M10 44h12M46 44h4M94 44h4M10 45h12M46 45h4M94 45h4M10 46h12M46 46h4M94 46h4M10 47h12M46 47h4M94 47h4M10 48h12M46 48h4M94 48h4M10 49h12M46 49h4M94 49h4M10 50h12M46 50h4M94 50h4M10 51h12M46 51h4M94 51h4M10 52h12M46 52h4M94 52h4M10 53h12M46 53h4M94 53h4M10 54h12M46 54h4M94 54h4M10 55h12M46 55h4M94 55h4M10 56h12M46 56h3M95 56h3M10 57h12M46 57h3M95 57h3M10 58h12M46 58h3M95 58h3M10 59h12M46 59h3M95 59h3M10 60h12M46 60h52M10 61h12M46 61h52" />
<path stroke="#b48267" d="M9 19h1M9 20h1M9 21h1M9 22h1M9 23h1M9 24h1M9 25h1M9 26h1M9 27h1M9 28h1M9 29h1M9 30h1M9 31h1M9 32h1M9 33h1M9 34h1M9 35h1M9 36h1M9 37h1M9 38h1M9 39h1M9 40h1M9 41h1M9 42h1M9 43h1M9 44h1M9 45h1M9 46h1M9 47h1M9 48h1M9 49h1M9 50h1M9 51h1M9 52h1M9 53h1M9 54h1M9 55h1M9 56h1M9 57h1M9 58h1M9 59h1M49 59h46M9 60h1M9 61h1" />
<path stroke="#434343" d="M53 37h38M53 38h38M53 39h38M53 40h38M53 41h38M53 42h38M53 43h38M53 44h38M53 45h38M53 46h38M53 47h38M53 48h38M53 49h38M53 50h38M53 51h38M53 52h38M53 53h38M53 54h38" />
<path stroke="#e4ad2e" d="M39 54h2M39 55h2M39 56h2" />
<path stroke="#979588" d="M9 63h3M13 63h9M46 63h3M50 63h12M63 63h12M76 63h12M89 63h9M9 64h3M13 64h9M46 64h3M50 64h12M63 64h12M76 64h12M89 64h9M9 65h3M13 65h9M46 65h3M50 65h12M63 65h12M76 65h12M89 65h9M9 67h9M19 67h3M46 67h9M56 67h12M69 67h12M82 67h12M95 67h3M9 68h9M19 68h3M46 68h9M56 68h12M69 68h12M82 68h12M95 68h3M9 69h9M19 69h3M46 69h9M56 69h12M69 69h12M82 69h12M95 69h3M9 71h6M16 71h6M46 71h6M53 71h12M66 71h12M79 71h12M92 71h6M9 72h6M16 72h6M46 72h6M53 72h12M66 72h12M79 72h12M92 72h6M9 73h6M16 73h6M46 73h6M53 73h12M66 73h12M79 73h12M92 73h6" />
<path stroke="#545067" d="M12 63h1M49 63h1M62 63h1M75 63h1M88 63h1M12 64h1M49 64h1M62 64h1M75 64h1M88 64h1M12 65h1M49 65h1M62 65h1M75 65h1M88 65h1M9 66h13M46 66h52M18 67h1M55 67h1M68 67h1M81 67h1M94 67h1M18 68h1M55 68h1M68 68h1M81 68h1M94 68h1M18 69h1M55 69h1M68 69h1M81 69h1M94 69h1M9 70h13M46 70h52M15 71h1M52 71h1M65 71h1M78 71h1M91 71h1M15 72h1M52 72h1M65 72h1M78 72h1M91 72h1M15 73h1M52 73h1M65 73h1M78 73h1M91 73h1" />
</svg>