<svg xmlns="http://www.w3.org/2000/svg" viewBox="0 -0.5 69 95" shape-rendering="crispEdges">
<metadata>Made with Pixels to Svg https://codepen.io/shshaw/pen/XbxvNj</metadata>
<path stroke="#000000" d="M27 0h6M26 1h1M33 1h6M24 2h2M39 2h5M21 3h3M44 3h3M18 4h3M47 4h4M14 5h4M51 5h3M12 6h2M54 6h3M11 7h1M57 7h1M10 8h1M58 8h1M9 9h1M58 9h1M8 10h1M59 10h1M8 11h1M11 11h1M60 11h1M9 12h2M12 12h1M60 12h1M12 13h1M60 13h1M12 14h1M59 14h1M11 15h1M60 15h1M11 16h1M60 16h1M11 17h1M61 17h1M11 18h1M62 18h1M10 19h1M62 19h1M9 20h1M62 20h1M9 21h1M63 21h1M8 22h1M63 22h1M7 23h1M64 23h1M6 24h1M64 24h1M6 25h1M65 25h1M6 26h1M65 26h1M5 27h1M65 27h1M5 28h1M65 28h1M4 29h1M65 29h1M3 30h1M65 30h1M3 31h1M65 31h1M2 32h1M66 32h1M1 33h1M66 33h1M1 34h1M67 34h1M0 35h1M68 35h1M0 36h1M3 36h1M68 36h1M1 37h2M4 37h1M65 37h1M68 37h1M4 38h1M64 38h1M66 38h2M5 39h1M64 39h1M5 40h1M65 40h1M4 41h1M65 41h1M4 42h1M65 42h1M3 43h1M66 43h1M3 44h1M67 44h1M3 45h1M67 45h1M2 46h1M67 46h1M2 47h1M67 47h1M2 48h1M67 48h1M3 49h1M67 49h1M3 50h1M7 50h2M65 50h2M4 51h3M9 51h3M22 51h3M45 51h3M61 51h4M12 52h3M19 52h3M25 52h3M42 52h3M48 52h2M60 52h1M15 53h4M28 53h5M38 53h4M50 53h2M56 53h4M28 54h1M33 54h5M40 54h1M52 54h4M28 55h1M40 55h1M28 56h1M40 56h1M28 57h1M40 57h1M28 58h1M40 58h1M28 59h1M40 59h1M28 60h1M40 60h1M28 61h1M40 61h1M28 62h1M40 62h1M28 63h1M40 63h1M28 64h1M40 64h1M28 65h1M40 65h1M28 66h1M40 66h1M28 67h1M40 67h1M28 68h1M40 68h1M28 69h1M40 69h1M28 70h1M40 70h1M28 71h1M40 71h1M28 72h1M40 72h1M28 73h1M40 73h1M28 74h1M40 74h1M28 75h1M40 75h1M28 76h1M40 76h1M28 77h1M40 77h1M28 78h1M40 78h1M28 79h1M40 79h1M28 80h1M40 80h1M28 81h1M40 81h1M28 82h1M40 82h1M28 83h1M40 83h1M27 84h1M41 84h1M27 85h1M41 85h1M27 86h1M41 86h1M27 87h1M41 87h1M27 88h1M41 88h1M26 89h1M42 89h1M26 90h1M42 90h1M25 91h1M43 91h1M25 92h1M43 92h1M25 93h1M43 93h1M25 94h1M43 94h1" />
<path stroke="#41ad36" d="M27 1h6M26 2h13M24 3h20M21 4h26M18 5h33M14 6h40M15 7h42M16 8h42M17 9h41M18 10h41M18 11h42M18 12h42M19 13h41M19 14h40M20 15h40M21 16h39M24 17h37M26 18h36M27 19h35M10 20h1M30 20h32M10 21h3M30 21h33M9 22h9M29 22h34M8 23h14M25 23h39M7 24h57M7 25h58M7 26h58M6 27h59M6 28h59M6 29h59M6 30h59M6 31h58M6 32h58M6 33h57M6 34h57M6 35h57M7 36h55M7 37h55M7 38h18M27 38h35M8 39h17M29 39h33M9 40h15M30 40h31M10 41h13M32 41h20M54 41h4M11 42h11M34 42h14M13 43h7M36 43h11M40 44h6" />
<path stroke="#1e7c48" d="M12 7h3M11 8h5M10 9h7M9 10h9M9 11h2M12 11h6M13 12h5M13 13h6M13 14h6M12 15h8M12 16h9M12 17h12M12 18h14M11 19h16M11 20h19M13 21h17M18 22h11M22 23h3M5 29h1M4 30h2M4 31h2M64 31h1M3 32h3M64 32h2M2 33h4M63 33h3M2 34h4M63 34h4M1 35h5M63 35h5M1 36h2M4 36h3M62 36h6M5 37h2M62 37h3M66 37h2M5 38h2M25 38h2M62 38h2M6 39h2M25 39h4M62 39h2M6 40h3M24 40h6M61 40h4M5 41h5M23 41h9M52 41h2M58 41h7M5 42h6M22 42h12M48 42h17M4 43h9M20 43h16M47 43h19M4 44h36M46 44h21M4 45h63M3 46h64M3 47h64M3 48h64M4 49h63M4 50h3M9 50h56M12 51h10M25 51h20M48 51h13M15 52h4M28 52h14M50 52h10M33 53h5M52 53h4" />
<path stroke="#bd7f4e" d="M29 54h4M29 55h8M29 56h8M29 57h8M29 58h8M29 59h8M29 60h8M29 61h8M29 62h8M29 63h8M29 64h8M29 65h8M29 66h8M29 67h9M29 68h9M29 69h9M29 70h9M29 71h9M29 72h9M29 73h9M29 74h9M29 75h9M29 76h9M29 77h9M29 78h9M29 79h9M29 80h8M29 81h8M29 82h8M29 83h8M29 84h8M29 85h8M30 86h7M30 87h7M30 88h9M29 89h10M29 90h10M28 91h11M28 92h12M28 93h12M28 94h12" />
<path stroke="#9c5841" d="M38 54h2M37 55h3M37 56h3M37 57h3M37 58h3M37 59h3M37 60h3M37 61h3M37 62h3M37 63h3M37 64h3M37 65h3M37 66h3M38 67h2M38 68h2M38 69h2M38 70h2M38 71h2M38 72h2M38 73h2M38 74h2M38 75h2M38 76h2M38 77h2M38 78h2M38 79h2M37 80h3M37 81h3M37 82h3M37 83h3M28 84h1M37 84h4M28 85h1M37 85h4M28 86h2M37 86h4M28 87h2M37 87h4M28 88h2M39 88h2M27 89h2M39 89h3M27 90h2M39 90h3M26 91h2M39 91h4M26 92h2M40 92h3M26 93h2M40 93h3M26 94h2M40 94h3" />
</svg>