<?xml version="1.0" encoding="UTF-8" standalone="no"?>
<!-- Created with Inkscape (http://www.inkscape.org/) -->

<svg
   version="1.1"
   id="svg1"
   width="2829.3333"
   height="2829.3333"
   viewBox="0 0 2829.3333 2829.3333"
   sodipodi:docname="vecteezy_heart-pixel-art_12013908.eps"
   xmlns:inkscape="http://www.inkscape.org/namespaces/inkscape"
   xmlns:sodipodi="http://sodipodi.sourceforge.net/DTD/sodipodi-0.dtd"
   xmlns="http://www.w3.org/2000/svg"
   xmlns:svg="http://www.w3.org/2000/svg">
  <defs
     id="defs1" />
  <sodipodi:namedview
     id="namedview1"
     pagecolor="#ffffff"
     bordercolor="#000000"
     borderopacity="0.25"
     inkscape:showpageshadow="2"
     inkscape:pageopacity="0.0"
     inkscape:pagecheckerboard="0"
     inkscape:deskcolor="#d1d1d1">
    <inkscape:page
       x="0"
       y="0"
       inkscape:label="1"
       id="page1"
       width="2829.3333"
       height="2829.3333"
       margin="0"
       bleed="0" />
  </sodipodi:namedview>
  <g
     id="g1"
     inkscape:groupmode="layer"
     inkscape:label="1">
    <g
       id="group-R5">
      <path
         id="path2"
         d="m 19419.2,15896.7 v 1408.9 h -766.4 v 704.5 h -766.3 v 704.4 h -766.3 v 704.5 h -766.3 -766.3 -766.3 -766.3 -766.3 -766.4 v -704.5 H 11756 v -704.4 h -766.3 v -704.5 h -766.3 v 704.5 h -766.31 v 704.4 h -766.32 v 704.5 h -766.31 -766.31 -766.3 -766.32 -766.32 v -704.5 h -766.3 -766.31 v -704.4 h -766.32 v -704.5 h -766.32 v -704.4 -704.5 h -766.3 v -704.4 -704.5 -704.4 -704.5 -704.4 -704.5 -704.4 h 766.3 v -704.5 -704.4 h 766.32 v -704.5 -704.4 h 766.32 v -704.5 -704.4 h 766.31 v -704.5 h 766.3 V 5330 h 766.32 v -704.5 h 766.32 v -704.4 h 766.3 v -704.4 h 766.31 766.31 v -704.5 h 766.32 v -704.4 h 766.31 766.3 766.3 v 704.4 h 766.3 v 704.5 h 766.4 766.3 v 704.4 h 766.3 v 704.4 h 766.3 V 5330 h 766.3 v 704.4 h 766.3 v 704.5 h 766.3 v 704.4 704.5 h 766.3 v 704.4 h 766.4 v 704.5 704.4 704.5 h 766.3 v 704.4 704.5 704.4 704.5 704.4 704.5 704.4 h -766.3"
         style="fill:#1a181a;fill-opacity:1;fill-rule:nonzero;stroke:none"
         transform="matrix(0.13333333,0,0,-0.13333333,0,2829.3333)" />
      <path
         id="path3"
         d="m 18652.8,15896.7 v 1408.9 h -766.3 v 704.5 h -766.3 -766.3 v 704.4 h -766.3 -766.3 -766.3 -766.3 v -704.4 h -766.4 -766.3 v -704.5 -704.4 h -766.3 -766.3 v 704.4 h -766.31 v 704.5 h -766.32 -766.31 v 704.4 h -766.31 -766.3 -766.32 -766.32 v -704.4 h -766.3 -766.31 v -704.5 -704.4 h -766.32 v -704.5 -704.4 h -766.32 v -704.5 -704.4 -704.5 -704.4 -704.5 h 766.32 v -704.4 -704.5 -704.4 h 766.32 v -704.5 -704.4 h 766.31 v -704.5 h 766.3 v -704.4 h 766.32 v -704.5 h 766.32 V 5330 h 766.3 v -704.5 h 766.31 v -704.4 h 766.31 v -704.4 h 766.32 766.31 v -704.5 h 766.3 v 704.5 h 766.3 766.3 v 704.4 h 766.4 v 704.4 H 14055 V 5330 h 766.3 v 704.4 h 766.3 v 704.5 h 766.3 v 704.4 h 766.3 v 704.5 h 766.3 v 704.4 704.5 h 766.3 v 704.4 704.5 h 766.4 v 704.4 704.5 704.4 704.5 704.4 704.5 704.4 h -766.4"
         style="fill:#ed222c;fill-opacity:1;fill-rule:nonzero;stroke:none"
         transform="matrix(0.13333333,0,0,-0.13333333,0,2829.3333)" />
      <path
         id="path4"
         d="m 2560.28,10261.1 v -704.4 h 766.32 v 704.4 h -766.32"
         style="fill:#c51e25;fill-opacity:1;fill-rule:nonzero;stroke:none"
         transform="matrix(0.13333333,0,0,-0.13333333,0,2829.3333)" />
      <path
         id="path5"
         d="m 18652.8,15896.7 v -2113.3 h -766.3 V 11670 h -766.3 v -704.4 h -766.3 v -704.5 -704.4 h -766.3 v -704.5 h -766.3 V 8147.8 H 14055 v -704.5 h -766.3 -766.4 v -704.4 h -766.3 -766.3 -766.3 -766.31 -766.32 -766.31 -766.31 v 704.4 h -766.3 -766.32 v 704.5 h -766.32 v 704.4 h -766.3 v 704.5 H 3326.6 v -704.5 -704.4 h 766.31 v -704.5 h 766.3 v -704.4 h 766.32 v -704.5 h 766.32 V 5330 h 766.3 v -704.5 h 766.31 v -704.4 h 766.31 v -704.4 h 766.32 766.31 v -704.5 h 766.3 v 704.5 h 766.3 766.3 v 704.4 h 766.4 v 704.4 H 14055 V 5330 h 766.3 v 704.4 h 766.3 v 704.5 h 766.3 v 704.4 h 766.3 v 704.5 h 766.3 v 704.4 704.5 h 766.3 v 704.4 704.5 h 766.4 v 704.4 704.5 704.4 704.5 704.4 704.5 704.4 h -766.4"
         style="fill:#c51e25;fill-opacity:1;fill-rule:nonzero;stroke:none"
         transform="matrix(0.13333333,0,0,-0.13333333,0,2829.3333)" />
      <path
         id="path6"
         d="m 18652.8,17305.6 h -766.3 v -704.4 h 766.3 v 704.4"
         style="fill:#c51e25;fill-opacity:1;fill-rule:nonzero;stroke:none"
         transform="matrix(0.13333333,0,0,-0.13333333,0,2829.3333)" />
      <path
         id="path7"
         d="m 2560.28,11670 v -704.4 h 766.32 v 1408.9 H 2560.28 V 11670"
         style="fill:#ffffff;fill-opacity:1;fill-rule:nonzero;stroke:none"
         transform="matrix(0.13333333,0,0,-0.13333333,0,2829.3333)" />
      <path
         id="path8"
         d="m 10223.4,14487.8 v -704.4 H 11756 v 704.4 h -766.3 -766.3"
         style="fill:#ffffff;fill-opacity:1;fill-rule:nonzero;stroke:none"
         transform="matrix(0.13333333,0,0,-0.13333333,0,2829.3333)" />
      <path
         id="path9"
         d="m 14821.3,17305.6 v 704.5 H 14055 v -704.5 h -766.3 v -704.4 h -766.4 v -704.5 -704.4 h 766.4 766.3 v 704.4 h 766.3 v 704.5 h 766.3 v 704.4 h -766.3"
         style="fill:#ffffff;fill-opacity:1;fill-rule:nonzero;stroke:none"
         transform="matrix(0.13333333,0,0,-0.13333333,0,2829.3333)" />
      <path
         id="path10"
         d="M 6391.85,17305.6 H 4859.21 v -704.4 h -766.3 v -704.5 -704.4 H 3326.6 v -704.5 -704.4 -704.5 h 766.31 v 704.5 h 766.3 v 704.4 h 766.32 v 704.5 704.4 h 766.32 766.3 v 704.5 h -766.3 v 704.4"
         style="fill:#ffffff;fill-opacity:1;fill-rule:nonzero;stroke:none"
         transform="matrix(0.13333333,0,0,-0.13333333,0,2829.3333)" />
    </g>
  </g>
</svg>
