<svg xmlns="http://www.w3.org/2000/svg" viewBox="0 -0.5 40 13" shape-rendering="crispEdges">
<metadata>Made with Pixels to Svg https://codepen.io/shshaw/pen/XbxvNj</metadata>
<path stroke="#ffffff" d="M2 0h36M1 1h1M38 1h1M0 2h1M39 2h1M0 3h1M39 3h1M0 4h1M39 4h1M0 5h1M39 5h1M0 6h1M39 6h1M0 7h1M39 7h1M0 8h1M39 8h1M0 9h1M39 9h1M0 10h1M39 10h1M1 11h1M38 11h1M2 12h36" />
<path stroke="#dbeffc" d="M2 1h36M1 2h1M38 2h1M1 3h1M38 3h1M1 4h1M38 4h1M1 5h1M38 5h1M1 6h1M38 6h1M1 7h1M38 7h1M1 8h1M38 8h1M1 9h1M38 9h1M1 10h1M38 10h1M2 11h36" />
<path stroke="#b6dffa" d="M2 2h36M2 3h36M2 4h36M2 5h36M2 6h36M2 7h36M2 8h36M2 9h36M2 10h36" />
</svg>