<svg xmlns="http://www.w3.org/2000/svg" viewBox="0 -0.5 200 200" shape-rendering="crispEdges">
<metadata>Made with Pixels to Svg https://codepen.io/shshaw/pen/XbxvNj</metadata>
<path stroke="#000000" d="M0 0h200M0 1h200M0 2h200M0 3h200M0 4h200M0 5h200M0 6h200M0 7h200M0 8h200M0 9h200M0 10h200M0 11h200M0 12h200M0 13h200M0 14h200M0 15h200M0 16h200M0 17h200M0 18h200M0 19h200M0 20h200M0 21h200M0 22h200M0 23h200M0 24h200M0 25h200M0 26h200M0 27h200M0 28h200M0 29h200M0 30h200M0 31h200M0 32h200M0 33h200M0 34h200M0 35h200M0 36h200M0 37h200M0 38h200M0 39h200M0 40h200M0 41h200M0 42h200M0 43h200M0 44h200M0 45h200M0 46h200M0 47h200M0 48h200M0 49h200M0 50h200M0 51h200M0 52h200M0 53h200M0 54h200M0 55h200M0 56h200M0 57h200M0 58h200M0 59h200M0 60h200M0 61h200M0 62h200M0 63h200M0 64h200M0 65h200M0 66h200M0 67h200M0 68h200M0 69h200M0 70h200M0 71h200M0 72h200M0 73h200M0 74h200M0 75h200M0 76h200M0 77h200M0 78h200M0 79h200M0 80h200M0 81h200M0 82h200M0 83h200M0 84h200M0 85h200M0 86h200M0 87h200M0 88h200M0 89h200M0 90h200M0 91h200M0 92h200M0 93h200M0 94h200M0 95h200M0 96h200M0 97h200M0 98h200M0 99h200M0 100h200M0 101h200M0 102h200M0 103h200M0 104h200M0 105h200M0 106h200M0 107h200M0 108h200M0 109h200M0 110h200M0 111h200M0 112h200M0 113h200M0 114h200M0 115h200M0 116h200M0 117h200M0 118h200M0 119h200M0 120h200M0 121h200M0 122h200M0 123h200M0 124h200M0 125h200M0 126h200M0 127h200M0 128h200M0 129h200M0 130h200M0 131h200M0 132h200M0 133h200M0 134h200M0 135h200M0 136h200M0 137h200M0 138h200M0 139h200M0 140h200M0 141h200M0 142h200M0 143h200M0 144h200M0 145h200M0 146h200M0 147h200M0 148h200M0 149h200M0 150h200M0 151h200M0 152h200M0 153h200M0 154h200M0 155h200M0 156h200M0 157h200M0 158h200M0 159h200M0 160h200M0 161h200M0 162h200M0 163h200M0 164h200M0 165h200M0 166h200M0 167h200M0 168h200M0 169h200M0 170h200M0 171h200M0 172h200M0 173h200M0 174h200M0 175h200M0 176h200M0 177h200M0 178h200M0 179h200M0 180h200M0 181h200M0 182h200M0 183h200M0 184h200M0 185h200M0 186h200M0 187h200M0 188h200M0 189h200M0 190h200M0 191h200M0 192h200M0 193h200M0 194h200M0 195h200M0 196h200M0 197h200M0 198h200M0 199h200" />
</svg>