<svg xmlns="http://www.w3.org/2000/svg" viewBox="0 -0.5 21 16" shape-rendering="crispEdges">
<metadata>Made with Pixels to Svg https://codepen.io/shshaw/pen/XbxvNj</metadata>
<path stroke="#1b1b1b" d="M0 0h21M0 1h1M20 1h1M0 2h1M20 2h1M0 3h1M20 3h1M0 4h1M20 4h1M0 5h1M20 5h1M0 6h1M20 6h1M0 7h1M20 7h1M0 8h1M20 8h1M0 9h1M20 9h1M0 10h1M20 10h1M0 11h1M20 11h1M0 12h1M20 12h1M0 13h1M20 13h1M0 14h1M20 14h1M0 15h1M20 15h1" />
<path stroke="#dda765" d="M1 1h8M12 1h8M1 2h8M12 2h8M1 3h9M12 3h8M1 4h19M1 5h19M1 6h1M5 6h1M10 6h1M14 6h1M18 6h2M1 7h1M3 7h3M7 7h2M10 7h1M12 7h3M16 7h4M1 8h1M5 8h1M10 8h1M14 8h1M18 8h2M1 9h1M3 9h3M7 9h1M9 9h2M12 9h3M16 9h4M1 10h1M3 10h3M7 10h2M10 10h1M12 10h3M16 10h4M1 11h1M3 11h3M7 11h2M10 11h1M14 11h1M18 11h2M1 12h19M1 13h19M1 14h19M1 15h19" />
<path stroke="#eacfaf" d="M9 1h3M9 2h3M10 3h2" />
<path stroke="#000000" d="M2 6h3M6 6h4M11 6h3M15 6h3M2 7h1M6 7h1M9 7h1M11 7h1M15 7h1M2 8h3M6 8h4M11 8h3M15 8h3M2 9h1M6 9h1M8 9h1M11 9h1M15 9h1M2 10h1M6 10h1M9 10h1M11 10h1M15 10h1M2 11h1M6 11h1M9 11h1M11 11h3M15 11h3" />
</svg>