<svg xmlns="http://www.w3.org/2000/svg" viewBox="0 -0.5 200 60" shape-rendering="crispEdges">
<metadata>Made with Pixels to Svg https://codepen.io/shshaw/pen/XbxvNj</metadata>
<path stroke="#bd7f4e" d="M0 0h200M1 3h2M194 3h2M1 4h2M194 4h2M1 5h2M194 5h2M1 6h2M194 6h2M1 7h2M194 7h2M1 8h2M194 8h2M1 9h2M194 9h2M1 10h2M194 10h2M1 11h2M194 11h2M1 12h2M194 12h2M1 13h2M194 13h2M1 14h2M194 14h2M1 15h2M194 15h2M1 16h2M194 16h2M1 17h2M194 17h2M1 18h2M194 18h2M1 19h2M194 19h2M194 20h2M1 21h1M194 21h2M1 22h1M194 22h2M1 23h1M194 23h1M1 24h1M194 24h1M1 25h1M194 25h1M1 26h1M194 26h1M1 27h1M194 27h1M1 28h1M194 28h1M1 29h1M194 29h1M1 30h1M194 30h1M1 31h1M194 31h1M1 32h1M194 32h1M1 33h1M194 33h1M1 34h1M194 34h1M1 35h1M194 35h1M1 36h1M194 36h1M1 37h1M194 37h1M1 38h1M194 38h1M1 39h1M194 39h1M1 40h1M194 40h1M1 41h1M194 41h1M1 42h1M194 42h1M1 43h1M194 43h1M1 44h1M194 44h2M1 45h1M194 45h2M1 46h1M194 46h2M1 47h1M194 47h2M1 48h1M194 48h2M1 49h1M194 49h2M1 50h1M194 50h2M1 51h1M194 51h2M1 52h1M194 52h2M1 53h1M194 53h2M1 54h1M194 54h2M1 55h1M194 55h2M1 56h1M194 56h2M1 57h1M194 57h2M1 58h1M194 58h2M1 59h1M194 59h2" />
<path stroke="#9c5841" d="M0 1h200M3 3h3M196 3h3M3 4h3M196 4h3M3 5h3M196 5h3M3 6h3M196 6h3M3 7h3M196 7h3M3 8h3M196 8h3M3 9h3M196 9h3M3 10h3M196 10h3M3 11h3M196 11h3M3 12h3M196 12h3M3 13h3M196 13h3M3 14h3M196 14h3M3 15h3M196 15h3M3 16h3M196 16h3M3 17h3M196 17h3M3 18h3M196 18h3M3 19h3M196 19h3M3 20h3M196 20h3M3 21h3M196 21h3M3 22h3M196 22h3M3 23h3M195 23h4M3 24h3M195 24h4M3 25h3M195 25h4M3 26h3M195 26h4M3 27h3M195 27h4M3 28h3M195 28h4M3 29h3M195 29h4M3 30h3M195 30h4M3 31h3M195 31h4M3 32h3M195 32h4M3 33h3M195 33h4M3 34h3M195 34h4M3 35h3M195 35h4M3 36h3M195 36h4M3 37h3M195 37h4M3 38h3M195 38h4M5 39h1M195 39h4M5 40h1M195 40h4M5 41h1M195 41h4M5 42h1M195 42h4M5 43h1M195 43h4M3 44h3M196 44h3M3 45h3M196 45h3M3 46h3M196 46h3M3 47h3M196 47h3M3 48h3M196 48h3M3 49h3M196 49h3M3 50h3M196 50h3M3 51h3M196 51h3M3 52h3M196 52h3M3 53h3M196 53h3M3 54h3M196 54h3M3 55h3M196 55h3M3 56h3M196 56h3M3 57h3M196 57h3M3 58h3M196 58h3M3 59h3M196 59h3" />
<path stroke="#000000" d="M0 2h200M0 3h1M6 3h1M193 3h1M199 3h1M0 4h1M6 4h1M193 4h1M199 4h1M0 5h1M6 5h1M193 5h1M199 5h1M0 6h1M6 6h1M193 6h1M199 6h1M0 7h1M6 7h1M193 7h1M199 7h1M0 8h1M6 8h1M193 8h1M199 8h1M0 9h1M6 9h1M193 9h1M199 9h1M0 10h1M6 10h1M193 10h1M199 10h1M0 11h1M6 11h1M193 11h1M199 11h1M0 12h1M6 12h1M193 12h1M199 12h1M0 13h1M6 13h1M193 13h1M199 13h1M0 14h1M6 14h1M193 14h1M199 14h1M0 15h1M6 15h1M193 15h1M199 15h1M0 16h1M6 16h1M193 16h1M199 16h1M0 17h1M6 17h1M193 17h1M199 17h1M0 18h1M6 18h1M193 18h1M199 18h1M0 19h1M6 19h1M193 19h1M199 19h1M0 20h3M6 20h1M193 20h1M199 20h1M0 21h1M2 21h1M6 21h1M193 21h1M199 21h1M0 22h1M2 22h1M6 22h1M193 22h1M199 22h1M0 23h1M2 23h1M6 23h1M193 23h1M199 23h1M0 24h1M2 24h1M6 24h1M193 24h1M199 24h1M0 25h1M2 25h1M6 25h1M193 25h1M199 25h1M0 26h1M2 26h1M6 26h1M193 26h1M199 26h1M0 27h1M2 27h1M6 27h1M193 27h1M199 27h1M0 28h1M2 28h1M6 28h1M193 28h1M199 28h1M0 29h1M2 29h1M6 29h1M193 29h1M199 29h1M0 30h1M2 30h1M6 30h1M193 30h1M199 30h1M0 31h1M2 31h1M6 31h1M193 31h1M199 31h1M0 32h1M2 32h1M6 32h1M193 32h1M199 32h1M0 33h1M2 33h1M6 33h1M193 33h1M199 33h1M0 34h1M2 34h1M6 34h1M193 34h1M199 34h1M0 35h1M2 35h1M6 35h1M193 35h1M199 35h1M0 36h1M2 36h1M6 36h1M193 36h1M199 36h1M0 37h1M2 37h1M6 37h1M193 37h1M199 37h1M0 38h1M2 38h1M6 38h1M193 38h1M199 38h1M0 39h1M2 39h3M6 39h1M193 39h1M199 39h1M0 40h1M2 40h1M4 40h1M6 40h1M193 40h1M199 40h1M0 41h1M2 41h1M4 41h1M6 41h1M193 41h1M199 41h1M0 42h1M2 42h1M4 42h1M6 42h1M193 42h1M199 42h1M0 43h1M2 43h3M6 43h1M193 43h1M199 43h1M0 44h1M2 44h1M6 44h1M193 44h1M199 44h1M0 45h1M2 45h1M6 45h1M193 45h1M199 45h1M0 46h1M2 46h1M6 46h1M193 46h1M199 46h1M0 47h1M2 47h1M6 47h1M193 47h1M199 47h1M0 48h1M2 48h1M6 48h188M199 48h1M0 49h1M2 49h1M6 49h1M193 49h1M199 49h1M0 50h1M2 50h1M6 50h1M193 50h1M199 50h1M0 51h1M2 51h1M6 51h1M193 51h1M199 51h1M0 52h1M2 52h1M6 52h1M193 52h1M199 52h1M0 53h1M2 53h1M6 53h1M193 53h1M199 53h1M0 54h1M2 54h1M6 54h1M193 54h1M199 54h1M0 55h1M2 55h1M6 55h1M193 55h1M199 55h1M0 56h1M2 56h1M6 56h1M193 56h1M199 56h1M0 57h1M2 57h1M6 57h1M193 57h1M199 57h1M0 58h1M2 58h1M6 58h1M193 58h1M199 58h1M0 59h1M2 59h1M6 59h1M193 59h1M199 59h1" />
<path stroke="#e2bd90" d="M7 3h186M7 4h186M7 5h186M7 6h186M7 7h186M7 8h186M7 9h186M7 10h186M7 11h186M7 12h186M7 13h186M7 14h186M7 15h186M7 16h186M7 17h186M7 18h186M7 19h186M7 20h186M7 21h186M7 22h186M7 23h186M7 24h186M7 25h186M7 26h186M7 27h186M7 28h186M7 29h186M7 30h186M7 31h186M7 32h186M7 33h186M7 34h186M7 35h186M7 36h186M7 37h186M7 38h186M7 39h186M7 40h186M7 41h186M7 42h186M7 43h186M7 44h186M7 45h186M7 46h186M7 47h186" />
<path stroke="#e4ad2e" d="M3 40h1M3 41h1M3 42h1" />
<path stroke="#979588" d="M7 49h3M11 49h12M24 49h12M37 49h12M50 49h12M63 49h12M76 49h12M89 49h12M102 49h12M115 49h12M128 49h12M141 49h12M154 49h12M167 49h12M180 49h12M7 50h3M11 50h12M24 50h12M37 50h12M50 50h12M63 50h12M76 50h12M89 50h12M102 50h12M115 50h12M128 50h12M141 50h12M154 50h12M167 50h12M180 50h12M7 51h3M11 51h12M24 51h12M37 51h12M50 51h12M63 51h12M76 51h12M89 51h12M102 51h12M115 51h12M128 51h12M141 51h12M154 51h12M167 51h12M180 51h12M7 53h9M17 53h12M30 53h12M43 53h12M56 53h12M69 53h12M82 53h12M95 53h12M108 53h12M121 53h12M134 53h12M147 53h12M160 53h12M173 53h12M186 53h7M7 54h9M17 54h12M30 54h12M43 54h12M56 54h12M69 54h12M82 54h12M95 54h12M108 54h12M121 54h12M134 54h12M147 54h12M160 54h12M173 54h12M186 54h7M7 55h9M17 55h12M30 55h12M43 55h12M56 55h12M69 55h12M82 55h12M95 55h12M108 55h12M121 55h12M134 55h12M147 55h12M160 55h12M173 55h12M186 55h7M7 57h6M14 57h12M27 57h12M40 57h12M53 57h12M66 57h12M79 57h12M92 57h12M105 57h12M118 57h12M131 57h12M144 57h12M157 57h12M170 57h12M183 57h10M7 58h6M14 58h12M27 58h12M40 58h12M53 58h12M66 58h12M79 58h12M92 58h12M105 58h12M118 58h12M131 58h12M144 58h12M157 58h12M170 58h12M183 58h10M7 59h6M14 59h12M27 59h12M40 59h12M53 59h12M66 59h12M79 59h12M92 59h12M105 59h12M118 59h12M131 59h12M144 59h12M157 59h12M170 59h12M183 59h10" />
<path stroke="#545067" d="M10 49h1M23 49h1M36 49h1M49 49h1M62 49h1M75 49h1M88 49h1M101 49h1M114 49h1M127 49h1M140 49h1M153 49h1M166 49h1M179 49h1M192 49h1M10 50h1M23 50h1M36 50h1M49 50h1M62 50h1M75 50h1M88 50h1M101 50h1M114 50h1M127 50h1M140 50h1M153 50h1M166 50h1M179 50h1M192 50h1M10 51h1M23 51h1M36 51h1M49 51h1M62 51h1M75 51h1M88 51h1M101 51h1M114 51h1M127 51h1M140 51h1M153 51h1M166 51h1M179 51h1M192 51h1M7 52h186M16 53h1M29 53h1M42 53h1M55 53h1M68 53h1M81 53h1M94 53h1M107 53h1M120 53h1M133 53h1M146 53h1M159 53h1M172 53h1M185 53h1M16 54h1M29 54h1M42 54h1M55 54h1M68 54h1M81 54h1M94 54h1M107 54h1M120 54h1M133 54h1M146 54h1M159 54h1M172 54h1M185 54h1M16 55h1M29 55h1M42 55h1M55 55h1M68 55h1M81 55h1M94 55h1M107 55h1M120 55h1M133 55h1M146 55h1M159 55h1M172 55h1M185 55h1M7 56h186M13 57h1M26 57h1M39 57h1M52 57h1M65 57h1M78 57h1M91 57h1M104 57h1M117 57h1M130 57h1M143 57h1M156 57h1M169 57h1M182 57h1M13 58h1M26 58h1M39 58h1M52 58h1M65 58h1M78 58h1M91 58h1M104 58h1M117 58h1M130 58h1M143 58h1M156 58h1M169 58h1M182 58h1M13 59h1M26 59h1M39 59h1M52 59h1M65 59h1M78 59h1M91 59h1M104 59h1M117 59h1M130 59h1M143 59h1M156 59h1M169 59h1M182 59h1" />
</svg>