<svg xmlns="http://www.w3.org/2000/svg" viewBox="0 -0.5 13 13" shape-rendering="crispEdges">
<metadata>Made with Pixels to Svg https://codepen.io/shshaw/pen/XbxvNj</metadata>
<path stroke="#ffffff" d="M2 0h9M1 1h1M11 1h1M0 2h1M12 2h1M0 3h1M12 3h1M0 4h1M12 4h1M0 5h1M12 5h1M0 6h1M12 6h1M0 7h1M12 7h1M0 8h1M12 8h1M0 9h1M12 9h1M0 10h1M12 10h1M1 11h1M11 11h1M2 12h9" />
<path stroke="#f6ebde" d="M2 1h9M1 2h1M11 2h1M1 3h1M11 3h1M1 4h1M11 4h1M1 5h1M11 5h1M1 6h1M11 6h1M1 7h1M11 7h1M1 8h1M11 8h1M1 9h1M11 9h1M1 10h1M11 10h1M2 11h9" />
<path stroke="#f1dec8" d="M2 2h9M2 3h1M9 3h2M2 4h1M4 4h4M9 4h2M2 5h1M4 5h2M7 5h4M2 6h1M4 6h1M10 6h1M2 7h1M4 7h2M7 7h4M2 8h1M4 8h4M9 8h2M2 9h1M9 9h2M2 10h9" />
<path stroke="#474747" d="M3 3h6M3 4h1M8 4h1M3 5h1M6 5h1M3 6h1M5 6h5M3 7h1M6 7h1M3 8h1M8 8h1M3 9h6" />
</svg>