<svg xmlns="http://www.w3.org/2000/svg" viewBox="0 -0.5 25 25" shape-rendering="crispEdges">
<metadata>Made with Pixels to Svg https://codepen.io/shshaw/pen/XbxvNj</metadata>
<path stroke="#000000" d="M5 0h5M5 1h1M9 1h1M5 2h5M6 3h1M8 3h1M4 4h8M4 5h1M10 5h1M12 5h1M4 6h1M10 6h1M13 6h1M4 7h1M10 7h1M14 7h1M0 8h25M0 9h1M24 9h1M0 10h1M24 10h1M0 11h25M1 12h1M23 12h1M1 13h1M23 13h1M1 14h1M23 14h1M1 15h1M23 15h1M1 16h1M23 16h1M1 17h1M23 17h1M1 18h1M23 18h1M1 19h1M23 19h1M1 20h1M23 20h1M1 21h1M23 21h1M1 22h1M23 22h1M1 23h1M23 23h1M1 24h1M23 24h1" />
<path stroke="#52b950" d="M6 1h2" />
<path stroke="#5f5f5f" d="M8 1h1M7 3h1M5 5h5M11 5h1M5 6h5M11 6h2M5 7h5M11 7h3M1 9h23M1 10h23" />
<path stroke="#6b6558" d="M2 12h21M2 13h21M2 14h21M2 15h21M2 16h21M2 17h21M2 18h21M2 19h21M2 20h21M2 21h21M2 22h21M2 23h21M2 24h21" />
</svg>