<svg xmlns="http://www.w3.org/2000/svg" viewBox="0 -0.5 200 50" shape-rendering="crispEdges">
<metadata>Made with Pixels to Svg https://codepen.io/shshaw/pen/XbxvNj</metadata>
<path stroke="#000000" d="M0 0h200M0 3h200M0 4h200M0 5h200M0 6h200M0 7h200M0 8h200M0 9h200M0 10h200M0 11h200M0 12h200M0 13h200M0 14h200M0 15h200M0 16h200M0 17h200M0 18h200M0 19h200M0 20h200M0 21h200M0 22h200M0 23h200M0 24h200M0 25h200M0 26h200M0 27h200M0 28h200M0 29h200M0 30h200M0 31h200M0 32h200M0 33h200M0 34h200M0 35h200M0 36h200M0 37h200M0 38h200M0 39h200M0 40h200M0 41h200M0 42h200M0 43h200M0 44h200M0 45h200M0 46h200M0 47h200M0 48h200M0 49h200" />
<path stroke="#bd7f4e" d="M0 1h200" />
<path stroke="#9c5841" d="M0 2h200" />
</svg>