<svg xmlns="http://www.w3.org/2000/svg" viewBox="0 -0.5 13 13" shape-rendering="crispEdges">
<metadata>Made with Pixels to Svg https://codepen.io/shshaw/pen/XbxvNj</metadata>
<path stroke="#ffffff" d="M2 0h9M1 1h1M11 1h1M0 2h1M12 2h1M0 3h1M12 3h1M0 4h1M12 4h1M0 5h1M12 5h1M0 6h1M12 6h1M0 7h1M12 7h1M0 8h1M12 8h1M0 9h1M12 9h1M0 10h1M12 10h1M1 11h1M11 11h1M2 12h9" />
<path stroke="#dbeffc" d="M2 1h9M1 2h1M11 2h1M1 3h1M11 3h1M1 4h1M11 4h1M1 5h1M11 5h1M1 6h1M11 6h1M1 7h1M11 7h1M1 8h1M11 8h1M1 9h1M11 9h1M1 10h1M11 10h1M2 11h9" />
<path stroke="#b6dffa" d="M2 2h9M2 3h4M7 3h4M2 4h9M2 5h4M7 5h4M2 6h4M7 6h4M2 7h4M7 7h4M2 8h4M7 8h4M2 9h4M7 9h4M2 10h9" />
<path stroke="#474747" d="M6 3h1M6 5h1M6 6h1M6 7h1M6 8h1M6 9h1" />
</svg>