<svg xmlns="http://www.w3.org/2000/svg" viewBox="0 -0.5 13 13" shape-rendering="crispEdges">
<metadata>Made with Pixels to Svg https://codepen.io/shshaw/pen/XbxvNj</metadata>
<path stroke="#3e1f08" d="M2 0h9M1 1h1M11 1h1M0 2h1M12 2h1M0 3h1M12 3h1M0 4h1M12 4h1M0 5h1M12 5h1M0 6h1M12 6h1M0 7h1M12 7h1M0 8h1M12 8h1M0 9h1M12 9h1M0 10h1M12 10h1M1 11h1M11 11h1M2 12h9" />
<path stroke="#e8be82" d="M2 1h9M1 2h11M1 3h11M1 4h2M10 4h2M1 5h11M1 6h2M10 6h2M1 7h11M1 8h2M10 8h2M1 9h11M1 10h11M2 11h9" />
<path stroke="#1b1b1b" d="M3 4h7M3 6h7M3 8h7" />
</svg>