<svg xmlns="http://www.w3.org/2000/svg" viewBox="0 -0.5 42 13" shape-rendering="crispEdges">
<metadata>Made with Pixels to Svg https://codepen.io/shshaw/pen/XbxvNj</metadata>
<path stroke="#3e1f08" d="M2 0h38M1 1h1M40 1h1M0 2h1M41 2h1M0 3h1M41 3h1M0 4h1M41 4h1M0 5h1M41 5h1M0 6h1M41 6h1M0 7h1M41 7h1M0 8h1M41 8h1M0 9h1M41 9h1M0 10h1M41 10h1M1 11h1M40 11h1M2 12h38" />
<path stroke="#e8be82" d="M2 1h38M1 2h40M1 3h40M1 4h40M1 5h40M1 6h40M1 7h40M1 8h40M1 9h40M1 10h40M2 11h38" />
<path stroke="#ffffff" d="M0 11h1M41 11h1M1 12h1M40 12h1" />
</svg>