<svg xmlns="http://www.w3.org/2000/svg" viewBox="0 -0.5 25 25" shape-rendering="crispEdges">
<metadata>Made with Pixels to Svg https://codepen.io/shshaw/pen/XbxvNj</metadata>
<path stroke="#000000" d="M10 3h5M8 4h2M6 5h2M17 5h2M6 6h1M18 6h1M6 7h1M18 7h1M5 8h1M19 8h1M5 9h1M19 9h1M5 10h1M19 10h1M5 11h1M19 11h1M5 12h1M19 12h1M5 13h1M19 13h1M5 14h1M19 14h1M5 15h1M19 15h1M5 16h1M19 16h1M6 17h1M18 17h1M6 18h1M18 18h1M6 19h2M17 19h2M8 20h2M15 20h2M10 21h5" />
<path stroke="#ffea5c" d="M10 4h5M9 5h1M7 6h3M7 7h2M8 8h1M8 14h1M8 15h1M11 15h1M11 16h1M7 18h1M11 18h2M8 19h2" />
<path stroke="#0b0a08" d="M15 4h1" />
<path stroke="#100f0e" d="M16 4h1" />
<path stroke="#f7de03" d="M8 5h1M7 8h1M7 9h2M7 10h2M7 11h2M7 12h2M7 13h2M7 14h1M7 15h1M7 16h2M7 17h2M8 18h1" />
<path stroke="#fadf4e" d="M10 5h1" />
<path stroke="#fbdf3b" d="M11 5h1" />
<path stroke="#fbe03c" d="M12 5h1" />
<path stroke="#fbe042" d="M13 5h1" />
<path stroke="#efd43a" d="M14 5h1" />
<path stroke="#ccaf19" d="M15 5h1" />
<path stroke="#b18229" d="M16 5h1" />
<path stroke="#f8ec00" d="M10 6h1" />
<path stroke="#fcf098" d="M11 6h1" />
<path stroke="#fdf2be" d="M12 6h1" />
<path stroke="#fff965" d="M13 6h1" />
<path stroke="#fff405" d="M14 6h1" />
<path stroke="#fdd624" d="M15 6h1" />
<path stroke="#d89e36" d="M16 6h1" />
<path stroke="#f1b737" d="M17 6h1M17 7h1M17 8h1" />
<path stroke="#f8e80e" d="M9 7h1" />
<path stroke="#fbfc73" d="M10 7h1" />
<path stroke="#fcfe8e" d="M11 7h1M13 7h1M11 17h2" />
<path stroke="#fffa99" d="M12 7h1" />
<path stroke="#fae714" d="M14 7h2M13 8h1M14 13h1M14 14h1M14 15h1M13 16h2M13 17h2M13 18h1" />
<path stroke="#e5ba29" d="M16 7h1" />
<path stroke="#fff9ab" d="M6 8h1M6 9h1M6 10h1M6 11h1M6 12h1M6 13h1M6 14h1M6 15h1M6 16h1" />
<path stroke="#f9fc21" d="M9 8h1" />
<path stroke="#feffff" d="M10 8h1" />
<path stroke="#f9fb26" d="M11 8h1" />
<path stroke="#ffef00" d="M12 8h1" />
<path stroke="#fff00d" d="M14 8h1M12 9h1M14 9h1M12 10h1M14 10h1M12 11h1M14 11h1M12 12h1M14 12h1" />
<path stroke="#ffff02" d="M15 8h1" />
<path stroke="#f9dc1c" d="M16 8h1" />
<path stroke="#cf9c2a" d="M18 8h1M18 9h1M18 10h1M18 11h1M18 12h1M18 13h1M18 14h1M18 15h1M18 16h1" />
<path stroke="#f9fa20" d="M9 9h1M9 10h1M9 11h1M9 12h1M9 13h1M9 14h1M9 15h1" />
<path stroke="#fefff1" d="M10 9h1M10 10h1M10 11h1M10 12h1M10 13h1M10 14h1" />
<path stroke="#f9fb2f" d="M11 9h1M11 10h1M11 11h1M11 12h1" />
<path stroke="#ffec11" d="M13 9h1M13 10h1M13 11h1M13 12h1M13 13h1M12 14h2M13 15h1" />
<path stroke="#fffe04" d="M15 9h1M15 10h1M15 11h1M15 12h1M15 13h1M15 14h1M15 15h1" />
<path stroke="#f7d91d" d="M16 9h1M16 10h1M16 11h1M16 12h1M16 13h1M16 14h1" />
<path stroke="#e5ae34" d="M17 9h1M17 10h1M17 11h1M17 12h1M17 13h1M17 14h1" />
<path stroke="#f9fc2e" d="M11 13h1" />
<path stroke="#fff10c" d="M12 13h1" />
<path stroke="#f9f337" d="M11 14h1" />
<path stroke="#fffef4" d="M10 15h1" />
<path stroke="#ffe619" d="M12 15h1" />
<path stroke="#f7da1d" d="M16 15h1" />
<path stroke="#e7af34" d="M17 15h1" />
<path stroke="#f9fa1f" d="M9 16h1" />
<path stroke="#fffeee" d="M10 16h1" />
<path stroke="#fae018" d="M12 16h1" />
<path stroke="#fffd05" d="M15 16h1" />
<path stroke="#f7d81d" d="M16 16h1" />
<path stroke="#e2ab33" d="M17 16h1" />
<path stroke="#fbfd03" d="M9 17h1" />
<path stroke="#f6f824" d="M10 17h1" />
<path stroke="#f9db1d" d="M15 17h1" />
<path stroke="#daa630" d="M16 17h2" />
<path stroke="#fff015" d="M9 18h1" />
<path stroke="#f9e50c" d="M10 18h1" />
<path stroke="#fee41b" d="M14 18h1" />
<path stroke="#efb734" d="M15 18h1" />
<path stroke="#dfa337" d="M16 18h2M15 19h2M12 20h3" />
<path stroke="#ecbe2c" d="M10 19h1" />
<path stroke="#fdcd2e" d="M11 19h1" />
<path stroke="#fece2d" d="M12 19h1" />
<path stroke="#ffce2e" d="M13 19h1" />
<path stroke="#c99e25" d="M14 19h1M10 20h2" />
</svg>