<svg xmlns="http://www.w3.org/2000/svg" viewBox="0 -0.5 25 25" shape-rendering="crispEdges">
<metadata>Made with Pixels to Svg https://codepen.io/shshaw/pen/XbxvNj</metadata>
<path stroke="#000000" d="M6 4h14M5 5h2M19 5h2M4 6h1M21 6h1M4 7h1M21 7h1M4 8h1M21 8h1M4 9h1M21 9h1M5 10h1M20 10h1M5 11h2M19 11h2M7 12h2M17 12h2M9 13h2M15 13h2M10 14h1M15 14h1M9 15h2M15 15h2M7 16h12M6 17h1M19 17h1M6 18h1M19 18h1M6 19h1M19 19h1M6 20h14" />
<path stroke="#f7de03" d="M7 5h2M7 7h1M6 8h1M6 9h1M6 10h1" />
<path stroke="#f9fc2e" d="M9 5h1" />
<path stroke="#fbfc73" d="M10 5h9" />
<path stroke="#fff9ab" d="M5 6h1M5 7h1M5 8h1M5 9h1" />
<path stroke="#f8e80e" d="M6 6h2M6 7h1M11 14h2" />
<path stroke="#ffea5c" d="M8 6h1M10 6h2M10 7h1M7 10h1M7 11h1" />
<path stroke="#fefff1" d="M9 6h1M8 7h1M8 8h1M8 9h1M8 10h1M9 11h2" />
<path stroke="#f9fb2f" d="M12 6h7M11 7h9M10 8h9M10 9h9M10 10h8M11 11h6M9 12h8M11 13h4M13 14h1" />
<path stroke="#efd43a" d="M19 6h2M20 7h1M19 8h1M19 9h1M13 15h2" />
<path stroke="#f9fa20" d="M9 7h1M9 8h1M7 9h1M9 9h1M9 10h1M8 11h1" />
<path stroke="#ffe254" d="M7 8h1" />
<path stroke="#e5ba29" d="M20 8h1M18 10h1M17 11h2M14 14h1M11 15h2" />
<path stroke="#dfa337" d="M20 9h1M19 10h1" />
<path stroke="#ffec11" d="M7 17h6M8 18h8" />
<path stroke="#fae714" d="M13 17h5M7 18h1M7 19h2" />
<path stroke="#f7d81d" d="M18 17h1M17 18h2M9 19h1M12 19h3" />
<path stroke="#ffd83c" d="M16 18h1" />
<path stroke="#ffce2e" d="M10 19h2M15 19h4" />
</svg>