<svg xmlns="http://www.w3.org/2000/svg" viewBox="0 -0.5 25 25" shape-rendering="crispEdges">
<metadata>Made with Pixels to Svg https://codepen.io/shshaw/pen/XbxvNj</metadata>
<path stroke="#000000" d="M18 4h4M17 5h1M21 5h1M16 6h1M21 6h1M15 7h1M21 7h1M14 8h1M20 8h1M13 9h1M19 9h1M12 10h1M18 10h1M11 11h1M17 11h1M6 12h3M10 12h1M16 12h1M6 13h1M9 13h1M15 13h1M7 14h1M14 14h1M8 15h1M13 15h1M7 16h1M12 16h1M6 17h1M10 17h1M13 17h1M4 18h2M9 18h1M11 18h1M13 18h1M4 19h1M8 19h1M12 19h2M4 20h1M7 20h1M4 21h4" />
<path stroke="#9cafd0" d="M18 5h1M17 6h1M16 7h1M15 8h1M14 9h1M13 10h1M12 11h1M11 12h1M10 13h2M10 14h2M11 15h1" />
<path stroke="#cbd9f0" d="M19 5h2M18 6h3M17 7h4M16 8h4M15 9h4M14 10h4M13 11h4M12 12h4M12 13h3M12 14h2M12 15h1" />
<path stroke="#ffcc0a" d="M7 13h1M9 14h1M10 15h1M9 16h2M12 17h1M12 18h1" />
<path stroke="#feea1f" d="M8 13h1M8 14h1M9 15h1M11 16h1M11 17h1" />
<path stroke="#9d6025" d="M8 16h1" />
<path stroke="#984e24" d="M7 17h1" />
<path stroke="#ba652b" d="M8 17h1M5 19h1M5 20h2" />
<path stroke="#ae5f23" d="M9 17h1" />
<path stroke="#ac5e29" d="M6 18h1" />
<path stroke="#b86629" d="M7 18h1" />
<path stroke="#aa5c27" d="M8 18h1" />
<path stroke="#a55a28" d="M6 19h1" />
<path stroke="#bc692a" d="M7 19h1" />
</svg>