<svg xmlns="http://www.w3.org/2000/svg" viewBox="0 -0.5 15 15" shape-rendering="crispEdges">
<metadata>Made with Pixels to Svg https://codepen.io/shshaw/pen/XbxvNj</metadata>
<path stroke="#253986" d="M2 0h11M1 1h1M13 1h1M0 2h1M14 2h1M0 3h1M14 3h1M0 4h1M14 4h1M0 5h1M14 5h1M0 6h1M14 6h1M0 7h1M14 7h1M0 8h1M14 8h1M0 9h1M14 9h1M0 10h1M14 10h1M0 11h1M14 11h1M0 12h1M14 12h1M1 13h1M13 13h1M2 14h11" />
<path stroke="#4774d4" d="M2 1h11M1 2h1M13 2h1M1 3h1M13 3h1M1 4h1M13 4h1M1 5h1M13 5h1M1 6h1M13 6h1M1 7h1M13 7h1M1 8h1M13 8h1M1 9h1M13 9h1M1 10h1M13 10h1M1 11h1M13 11h1M1 12h1M13 12h1M2 13h11" />
<path stroke="#4d81ed" d="M2 2h11M2 3h11M2 4h11M2 5h11M2 6h11M2 7h11M2 8h11M2 9h11M2 10h11M2 11h11M2 12h11" />
</svg>