<svg xmlns="http://www.w3.org/2000/svg" viewBox="0 0 60 80" fill="none">
  <rect x="2" y="2" width="56" height="76" rx="4" fill="url(#dragonGrad)" stroke="#8B0000" stroke-width="2"/>
  <defs>
    <linearGradient id="dragonGrad" x1="30" y1="0" x2="30" y2="80" gradientUnits="userSpaceOnUse">
      <stop offset="0%" stop-color="#FF6B6B"/>
      <stop offset="100%" stop-color="#8B0000"/>
    </linearGradient>
  </defs>
  <!-- Dragon body -->
  <ellipse cx="30" cy="45" rx="18" ry="15" fill="#FF4444"/>
  <!-- Dragon head -->
  <circle cx="30" cy="28" r="12" fill="#FF4444"/>
  <!-- Eyes -->
  <circle cx="26" cy="26" r="3" fill="#FFD700"/>
  <circle cx="34" cy="26" r="3" fill="#FFD700"/>
  <circle cx="26" cy="26" r="1.5" fill="#000"/>
  <circle cx="34" cy="26" r="1.5" fill="#000"/>
  <!-- Horns -->
  <path d="M22 18L18 8L24 16" fill="#8B0000"/>
  <path d="M38 18L42 8L36 16" fill="#8B0000"/>
  <!-- Wings -->
  <path d="M12 35L5 25L10 40L5 50L15 45" fill="#FF6B6B" stroke="#8B0000"/>
  <path d="M48 35L55 25L50 40L55 50L45 45" fill="#FF6B6B" stroke="#8B0000"/>
  <!-- Fire breath -->
  <path d="M25 35L30 42L35 35L32 38L30 35L28 38Z" fill="#FFD700"/>
  <!-- Tail -->
  <path d="M30 60Q40 65 35 72Q30 68 25 72Q20 65 30 60" fill="#FF4444" stroke="#8B0000"/>
  <!-- Border decoration -->
  <rect x="6" y="6" width="48" height="68" rx="2" fill="none" stroke="#FFD700" stroke-width="1" stroke-dasharray="4 2"/>
</svg>