<svg xmlns="http://www.w3.org/2000/svg" viewBox="0 0 60 80" fill="none">
  <rect x="2" y="2" width="56" height="76" rx="4" fill="url(#knightGrad)" stroke="#B8860B" stroke-width="2"/>
  <defs>
    <linearGradient id="knightGrad" x1="30" y1="0" x2="30" y2="80" gradientUnits="userSpaceOnUse">
      <stop offset="0%" stop-color="#FFE66D"/>
      <stop offset="100%" stop-color="#B8860B"/>
    </linearGradient>
  </defs>
  <!-- Helmet -->
  <ellipse cx="30" cy="22" rx="12" ry="14" fill="#C0C0C0"/>
  <rect x="20" y="20" width="20" height="8" fill="#A0A0A0"/>
  <!-- Visor -->
  <rect x="22" y="22" width="16" height="4" fill="#2D3748"/>
  <line x1="24" y1="24" x2="36" y2="24" stroke="#4A5568" stroke-width="1"/>
  <!-- Plume -->
  <path d="M30 8Q35 5 32 12Q38 8 35 15Q40 12 36 18L30 14L24 18Q20 12 25 15Q22 8 28 12Q25 5 30 8Z" fill="#FF6B35"/>
  <!-- Body armor -->
  <path d="M18 35L30 30L42 35V55L30 60L18 55V35Z" fill="#C0C0C0" stroke="#808080"/>
  <!-- Chest emblem -->
  <circle cx="30" cy="42" r="6" fill="#FFD700" stroke="#B8860B"/>
  <path d="M30 38L32 42L30 46L28 42Z" fill="#B8860B"/>
  <!-- Arms -->
  <rect x="10" y="35" width="8" height="20" rx="2" fill="#A0A0A0"/>
  <rect x="42" y="35" width="8" height="20" rx="2" fill="#A0A0A0"/>
  <!-- Sword -->
  <rect x="46" y="28" width="3" height="25" fill="#C0C0C0"/>
  <rect x="44" y="50" width="7" height="4" fill="#8B4513"/>
  <path d="M47.5 28L50 25L45 25Z" fill="#C0C0C0"/>
  <!-- Shield -->
  <path d="M8 38L14 35L14 50L11 55L8 50V38Z" fill="#1E3A5F" stroke="#FFD700"/>
  <!-- Legs -->
  <rect x="22" y="58" width="6" height="14" fill="#A0A0A0"/>
  <rect x="32" y="58" width="6" height="14" fill="#A0A0A0"/>
  <!-- Border decoration -->
  <rect x="6" y="6" width="48" height="68" rx="2" fill="none" stroke="#FFD700" stroke-width="1" stroke-dasharray="4 2"/>
</svg>